<?xml version="1.0" encoding="iso-8859-1"?>
<!-- Generator: Adobe Illustrator 19.0.0, SVG Export Plug-In . SVG Version: 6.00 Build 0)  -->
<svg version="1.1" id="Layer_1" xmlns="http://www.w3.org/2000/svg" xmlns:xlink="http://www.w3.org/1999/xlink" x="0px" y="0px"
	 viewBox="0 0 295.239 295.239" style="enable-background:new 0 0 295.239 295.239;" xml:space="preserve">
<g>
	<g>
		<rect x="119.048" y="104.762" style="fill:#333333;" width="57.143" height="9.524"/>
		<path style="fill:#333333;" d="M280.952,23.81h-9.524h-9.524H241.5c-0.662-1.871-1.695-3.614-3.081-5.071
			c-2.686-2.829-6.462-4.452-10.362-4.452h-42.343C185.714,6.41,179.305,0,171.429,0H123.81c-7.876,0-14.286,6.41-14.286,14.286
			H67.181c-3.9,0-7.676,1.624-10.362,4.452c-1.386,1.457-2.419,3.2-3.081,5.071H14.286C6.41,23.81,0,30.219,0,38.095v52.381
			c0,7.876,6.41,14.286,14.286,14.286h43.252c0.819,2.31,2.181,4.338,3.976,5.924l-8.529,132.2
			c-0.405,6.2-0.605,12.491-0.605,18.705v19.362c0,7.876,6.41,14.286,14.286,14.286h161.905c7.876,0,14.286-6.41,14.286-14.286
			v-19.057c0-6.41-0.214-12.91-0.643-19.324l-8.776-131.662c1.929-1.614,3.405-3.724,4.267-6.152h24.2
			c7.876,0,14.286-6.41,14.286-14.286V42.857h-9.524v47.619c0,2.629-2.138,4.762-4.762,4.762c-2.624,0-4.762-2.133-4.762-4.762
			V38.095c0-2.629,2.138-4.762,4.762-4.762h9.524h9.524c2.624,0,4.762,2.133,4.762,4.762V100h9.524V38.095
			C295.238,30.219,288.828,23.81,280.952,23.81z M123.81,9.524h47.619c2.624,0,4.762,2.133,4.762,4.762h-57.143
			C119.048,11.657,121.186,9.524,123.81,9.524z M9.524,90.476V38.095c0-2.629,2.138-4.762,4.762-4.762h38.843l3.257,61.905h-42.1
			C11.662,95.238,9.524,93.105,9.524,90.476z M233.333,280.952c0,2.629-2.138,4.762-4.762,4.762H66.667
			c-2.624,0-4.762-2.133-4.762-4.762V261.59c0-6.01,0.195-12.095,0.586-18.09l8.338-129.224c0.038,0,0.076,0.01,0.114,0.01h19.533
			v-9.524H70.938c-2.533,0-4.624-1.981-4.757-4.51l-3.762-71.429c-0.071-1.314,0.395-2.571,1.3-3.529
			c0.905-0.957,2.143-1.486,3.462-1.486h160.876c1.319,0,2.543,0.524,3.452,1.486c0.91,0.962,1.371,2.214,1.3,3.529l-3.762,71.429
			c-0.129,2.529-2.214,4.51-4.748,4.51h-19.538v9.524h19.357l8.595,128.919c0.41,6.205,0.619,12.49,0.619,18.69L233.333,280.952
			L233.333,280.952z M248.495,95.238h-9.643l3.257-61.905h6.386c-0.533,1.495-0.876,3.086-0.876,4.762v52.381
			C247.619,92.152,247.962,93.743,248.495,95.238z"/>
		<path style="fill:#F9BA48;" d="M104.762,200c-10.505,0-19.048-8.543-19.048-19.048V61.905h38.095v119.048
			C123.81,191.457,115.267,200,104.762,200z"/>
		<path style="fill:#F9BA48;" d="M190.476,200c-10.505,0-19.048-8.543-19.048-19.048V61.905h38.095v119.048
			C209.524,191.457,200.981,200,190.476,200z"/>
		<rect x="80.952" y="161.905" style="fill:#333333;" width="47.619" height="9.524"/>
		<rect x="80.952" y="138.095" style="fill:#333333;" width="47.619" height="9.524"/>
		<rect x="166.667" y="161.905" style="fill:#333333;" width="47.619" height="9.524"/>
		<rect x="166.667" y="138.095" style="fill:#333333;" width="47.619" height="9.524"/>
		<rect x="209.524" y="238.095" style="fill:#333333;" width="9.524" height="9.524"/>
		<rect x="76.191" y="238.095" style="fill:#333333;" width="123.809" height="9.524"/>
	</g>
</g>
<g>
</g>
<g>
</g>
<g>
</g>
<g>
</g>
<g>
</g>
<g>
</g>
<g>
</g>
<g>
</g>
<g>
</g>
<g>
</g>
<g>
</g>
<g>
</g>
<g>
</g>
<g>
</g>
<g>
</g>
</svg>
