<?xml version="1.0" encoding="iso-8859-1"?>
<!-- Generator: Adobe Illustrator 19.0.0, SVG Export Plug-In . SVG Version: 6.00 Build 0)  -->
<svg version="1.1" id="Layer_1" xmlns="http://www.w3.org/2000/svg" xmlns:xlink="http://www.w3.org/1999/xlink" x="0px" y="0px"
	 viewBox="0 0 295.238 295.238" style="enable-background:new 0 0 295.238 295.238;" xml:space="preserve">
<g>
	<g>
		<path style="fill:#F9BA48;" d="M247.619,247.619c-13.129,0-23.81-10.681-23.81-23.81S234.49,200,247.619,200
			c13.129,0,23.809,10.681,23.809,23.81S260.748,247.619,247.619,247.619z"/>
		<path style="fill:#333333;" d="M276.19,152.381h-95.238v-27.467l75.514,15.9c6.443,1.352,13.048,2.043,19.724,2.043
			c10.505,0,19.048-8.543,19.048-19.048c0-7.714-4.6-14.614-11.719-17.581l-16.852-7.024V76.19h-28.571V87.3l-14.286-5.952V57.143
			h-28.571v12.3l-14.41-6.005c-0.6-15.524-4.495-30.943-11.443-44.838l-3.729-7.452C162.224,4.271,155.31,0,147.619,0
			s-14.605,4.271-18.043,11.152l-3.729,7.452C118.9,32.5,115.005,47.919,114.405,63.443l-14.405,6v-12.3H71.429v24.205L57.143,87.3
			V76.19H28.571v23.014l-16.852,7.019C4.6,109.195,0,116.095,0,123.81c0,10.505,8.543,19.048,19.148,19.048
			c6.576,0,13.176-0.69,19.624-2.043l75.514-15.9v27.467H95.238c-5.681,0-10.795,2.5-14.286,6.462
			c-3.49-3.962-8.605-6.462-14.286-6.462H19.048C8.543,152.381,0,160.924,0,171.429V276.19c0,10.505,8.543,19.048,19.048,19.048
			h47.619c5.681,0,10.795-2.5,14.286-6.462c3.49,3.962,8.605,6.462,14.286,6.462H276.19c10.505,0,19.048-8.543,19.048-19.048
			V171.429C295.238,160.924,286.695,152.381,276.19,152.381z M285.714,123.81c0,5.252-4.271,9.524-9.624,9.524
			c-5.919,0-11.862-0.619-17.657-1.838l-77.481-16.31v-9.195l56.071,12.938l2.143-9.281L180.952,96.21v-22.4l98.9,41.21
			C283.414,116.5,285.714,119.948,285.714,123.81z M247.619,85.714h9.524v9.524l-9.524-3.967V85.714z M204.762,66.667h9.524v10.714
			l-9.524-3.967V66.667z M80.952,66.667h9.524v6.748l-9.524,3.967V66.667z M38.095,85.714h9.524v5.557l-9.524,3.967V85.714z
			 M36.81,131.495c-5.8,1.219-11.743,1.838-17.762,1.838c-5.252,0-9.524-4.271-9.524-9.524c0-3.862,2.3-7.31,5.862-8.795
			l98.9-41.205v22.4l-58.214,13.433l2.143,9.281l56.071-12.938v9.195L36.81,131.495z M123.81,67.586
			c0-15.443,3.652-30.905,10.557-44.724l3.729-7.452c1.814-3.629,5.462-5.886,9.524-5.886s7.71,2.257,9.524,5.886l3.729,7.452
			c6.905,13.819,10.557,29.281,10.557,44.724v84.795h-47.62V67.586z M276.19,285.714H95.238c-5.252,0-9.524-4.271-9.524-9.524H76.19
			c0,5.252-4.271,9.524-9.524,9.524H19.048c-5.252,0-9.524-4.271-9.524-9.524v-9.524h57.143v-9.524H9.524v-66.667h57.143v-9.524
			H9.524v-9.524c0-5.252,4.271-9.524,9.524-9.524h47.619c5.252,0,9.524,4.271,9.524,9.524h9.524c0-5.252,4.271-9.524,9.524-9.524
			h19.048h66.667h95.238c5.252,0,9.524,4.271,9.524,9.524v9.524H95.238v9.524h190.476v66.667h-23.81H95.238v9.524h166.667h23.81
			v9.524C285.714,281.443,281.443,285.714,276.19,285.714z"/>
		<rect x="76.191" y="238.095" style="fill:#333333;" width="9.524" height="9.524"/>
		<rect x="76.191" y="219.048" style="fill:#333333;" width="9.524" height="9.524"/>
		<rect x="76.191" y="200" style="fill:#333333;" width="9.524" height="9.524"/>
		<rect x="76.191" y="180.952" style="fill:#333333;" width="9.524" height="9.524"/>
		<rect x="76.191" y="257.143" style="fill:#333333;" width="9.524" height="9.524"/>
		<rect x="23.81" y="200" style="fill:#333333;" width="9.524" height="47.619"/>
		<rect x="47.619" y="200" style="fill:#333333;" width="9.524" height="47.619"/>
		<rect x="95.238" y="204.762" style="fill:#333333;" width="119.048" height="9.524"/>
		<rect x="95.238" y="233.333" style="fill:#333333;" width="119.048" height="9.524"/>
		<rect x="95.238" y="214.286" style="fill:#F9BA48;" width="119.048" height="19.048"/>
	</g>
</g>
<g>
</g>
<g>
</g>
<g>
</g>
<g>
</g>
<g>
</g>
<g>
</g>
<g>
</g>
<g>
</g>
<g>
</g>
<g>
</g>
<g>
</g>
<g>
</g>
<g>
</g>
<g>
</g>
<g>
</g>
</svg>
