<?xml version="1.0" encoding="iso-8859-1"?>
<!-- Generator: Adobe Illustrator 19.0.0, SVG Export Plug-In . SVG Version: 6.00 Build 0)  -->
<svg version="1.1" id="Layer_1" xmlns="http://www.w3.org/2000/svg" xmlns:xlink="http://www.w3.org/1999/xlink" x="0px" y="0px"
	 viewBox="0 0 295.095 295.095" style="enable-background:new 0 0 295.095 295.095;" xml:space="preserve">
<g>
	<g>
		<g>
			<g>
				<path style="fill:#F9BA48;" d="M95.167,190.333c-10.505,0-19.048-8.543-19.048-19.048s8.543-19.048,19.048-19.048
					s19.048,8.543,19.048,19.048C114.214,181.79,105.671,190.333,95.167,190.333z"/>
			</g>
		</g>
		<g>
			<g>
				<path style="fill:#F9BA48;" d="M123.738,228.429H66.595v-14.286c0-13.129,10.681-23.81,23.81-23.81h9.524
					c13.129,0,23.81,10.681,23.81,23.81L123.738,228.429L123.738,228.429z"/>
			</g>
		</g>
		<g>
			<g>
				<path style="fill:#F9BA48;" d="M199.929,190.333c-10.505,0-19.048-8.543-19.048-19.048s8.543-19.048,19.048-19.048
					s19.048,8.543,19.048,19.048C218.976,181.79,210.433,190.333,199.929,190.333z"/>
			</g>
		</g>
		<g>
			<g>
				<path style="fill:#F9BA48;" d="M228.5,228.429h-57.143v-14.286c0-13.129,10.681-23.81,23.81-23.81h9.524
					c13.129,0,23.81,10.681,23.81,23.81L228.5,228.429L228.5,228.429z"/>
			</g>
		</g>
		<path style="fill:#333333;" d="M291.562,71.429L174.819,42.243c6.2-1.557,10.824-7.138,10.824-13.814
			c0-7.876-6.41-14.286-14.286-14.286s-14.286,6.41-14.286,14.286c0,4.205,1.857,7.948,4.757,10.567l-23.386-5.848
			c7.681-0.229,13.867-6.51,13.867-14.243c0-7.876-6.41-14.286-14.286-14.286c-7.876,0-14.286,6.41-14.286,14.286
			c0,5.338,2.976,9.948,7.329,12.4L5.848,0L3.533,9.238l139.252,34.814v31.995H80.881v-4.762C80.881,63.41,74.471,57,66.595,57
			S52.31,63.41,52.31,71.286v8.7l-8.795,24.633h-29.3v21.429l18.938,14.2c-3.067,14.871-4.652,30.024-4.652,45.324
			c0,25.824,4.405,51.252,13.09,75.571l12.124,33.952h187.662l12.124-33.952c8.69-24.319,13.095-49.748,13.095-75.571
			c0-15.3-1.586-30.452-4.652-45.324l18.938-14.2v-21.429h-29.3l-8.795-24.633v-8.7c0-0.786-0.11-1.543-0.233-2.29l46.695,11.671
			L291.562,71.429z M171.357,23.667c2.624,0,4.762,2.138,4.762,4.762s-2.138,4.762-4.762,4.762s-4.762-2.138-4.762-4.762
			S168.733,23.667,171.357,23.667z M138.024,14.143c2.624,0,4.762,2.138,4.762,4.762s-2.138,4.762-4.762,4.762
			s-4.762-2.138-4.762-4.762S135.4,14.143,138.024,14.143z M66.595,66.524c2.624,0,4.762,2.138,4.762,4.762v4.762h-9.524v-4.762
			C61.833,68.662,63.971,66.524,66.595,66.524z M53.624,104.619h165.352v-9.524H57.029l3.4-9.524h174.243l3.4,9.524H228.5v9.524
			h12.971l3.067,8.586c1.795,5.024,3.362,10.11,4.771,15.224H45.786c1.414-5.119,2.976-10.2,4.771-15.224L53.624,104.619z
			 M233.262,76.048h-9.524v-4.762c0-2.624,2.138-4.762,4.762-4.762s4.762,2.138,4.762,4.762L233.262,76.048L233.262,76.048z
			 M23.738,121.286v-7.143H40.21c-1.771,5.271-3.357,10.586-4.729,15.952L23.738,121.286z M234.667,285.571H60.429l-9.867-27.633
			c-3.452-9.667-6.157-19.529-8.19-29.51h210.352c-2.033,9.986-4.738,19.843-8.19,29.51L234.667,285.571z M254.433,218.905H40.662
			c-1.724-10.99-2.638-22.119-2.638-33.333c0-16.1,1.819-32.033,5.362-47.619H251.71c3.543,15.586,5.362,31.519,5.362,47.619
			C257.071,196.786,256.157,207.914,254.433,218.905z M271.357,121.286l-11.743,8.81c-1.367-5.362-2.957-10.681-4.729-15.952h16.471
			v7.142H271.357z M214.214,71.286v4.762H152.31V46.433l64.886,16.219C215.352,65.062,214.214,68.029,214.214,71.286z"/>
	</g>
</g>
<g>
</g>
<g>
</g>
<g>
</g>
<g>
</g>
<g>
</g>
<g>
</g>
<g>
</g>
<g>
</g>
<g>
</g>
<g>
</g>
<g>
</g>
<g>
</g>
<g>
</g>
<g>
</g>
<g>
</g>
</svg>
