<?xml version="1.0" encoding="iso-8859-1"?>
<!-- Generator: Adobe Illustrator 19.0.0, SVG Export Plug-In . SVG Version: 6.00 Build 0)  -->
<svg version="1.1" id="Layer_1" xmlns="http://www.w3.org/2000/svg" xmlns:xlink="http://www.w3.org/1999/xlink" x="0px" y="0px"
	 viewBox="0 0 297.649 297.649" style="enable-background:new 0 0 297.649 297.649;" xml:space="preserve">
<g>
	<g>
		<path style="fill:#F9BA48;" d="M172.634,230.976h-66.667v-80.952c0-7.89,6.395-14.286,14.286-14.286h38.095
			c7.89,0,14.286,6.395,14.286,14.286V230.976z"/>
		<path style="fill:#333333;" d="M139.301,150.024c-10.505,0-19.048,8.543-19.048,19.048s8.543,19.048,19.048,19.048
			s19.048-8.543,19.048-19.048S149.806,150.024,139.301,150.024z M139.301,178.595c-5.252,0-9.524-4.271-9.524-9.524
			s4.271-9.524,9.524-9.524s9.524,4.271,9.524,9.524S144.553,178.595,139.301,178.595z"/>
		<path style="fill:#333333;" d="M296.444,194.386c0-16.8-6.476-32.533-17.481-44.362h13.548l-28.571-33.333h23.948l-33.333-38.095
			h19.157L225.015,23.81l-48.7,54.786h19.157l-21.048,24.057c-1.605-0.119-3.21-0.248-4.829-0.248h-31.8
			c-5.619,0-11.038,0.79-16.243,2.133l-9.995-11.657h23.948l-33.333-38.095h19.157L72.634,0l-48.7,54.786h19.157L9.758,92.881
			h23.948L5.134,126.214h48.095l-4.395,61.567l9.5,0.681l5.129-71.771H25.844l28.571-33.333H30.749l33.333-38.095H45.144
			l27.49-30.929l27.49,30.929H81.187l33.333,38.095H90.849l20.981,24.476c-5.286,2.305-10.195,5.3-14.643,8.857H81.801l1.133,15.848
			c-6.486,10.129-10.3,22.133-10.3,35.029v26.824c0,13.552,4.171,26.152,11.281,36.59H1.206v9.524h28.571v19.724
			c-8.19,2.129-14.286,9.524-14.286,18.371c0,10.505,8.543,19.048,19.048,19.048s19.048-8.543,19.048-19.048
			c0-8.848-6.095-16.243-14.286-18.371V240.5h52.505c11.795,11.762,28.057,19.048,45.986,19.048h30.457
			c-0.219,1.562-0.376,3.143-0.376,4.762c0,18.381,14.952,33.333,33.333,33.333s33.333-14.952,33.333-33.333
			c0-1.671-0.162-3.3-0.405-4.905C268.734,257.895,296.444,229.352,296.444,194.386z M44.063,278.595
			c0,5.252-4.271,9.524-9.524,9.524s-9.524-4.271-9.524-9.524s4.271-9.524,9.524-9.524S44.063,273.343,44.063,278.595z
			 M216.463,69.071h-18.938l27.49-30.929l27.49,30.929h-18.938l33.333,38.095h-23.671l28.572,33.334h-3.957
			c-3.31-2.243-6.829-4.238-10.586-5.871l-61.69-26.819c-3.281-1.424-6.657-2.49-10.076-3.352L216.463,69.071z M201.206,288.119
			c-13.129,0-23.81-10.681-23.81-23.81s10.681-23.81,23.81-23.81s23.81,10.681,23.81,23.81
			C225.015,277.438,214.334,288.119,201.206,288.119z M231.282,250.024h-0.005c-5.362-11.243-16.81-19.048-30.071-19.048
			c-13.262,0-24.71,7.805-30.071,19.048h-33.338c-30.681,0-55.638-24.957-55.638-55.638v-26.824
			c0-30.676,24.957-55.633,55.638-55.633h31.8c7.676,0,15.143,1.552,22.186,4.614l61.686,26.819
			c20.319,8.838,33.452,28.867,33.452,51.024C286.92,225.067,261.963,250.024,231.282,250.024z"/>
		<path style="fill:#333333;" d="M201.206,250.024c-7.876,0-14.286,6.41-14.286,14.286s6.41,14.286,14.286,14.286
			c7.876,0,14.286-6.41,14.286-14.286C215.491,256.433,209.082,250.024,201.206,250.024z M201.206,269.071
			c-2.624,0-4.762-2.138-4.762-4.762s2.138-4.762,4.762-4.762s4.762,2.138,4.762,4.762S203.83,269.071,201.206,269.071z"/>
		<rect x="196.444" y="178.595" style="fill:#333333;" width="9.524" height="9.524"/>
		<rect x="220.253" y="178.595" style="fill:#333333;" width="9.524" height="9.524"/>
		<rect x="244.063" y="178.595" style="fill:#333333;" width="9.524" height="9.524"/>
	</g>
</g>
<g>
</g>
<g>
</g>
<g>
</g>
<g>
</g>
<g>
</g>
<g>
</g>
<g>
</g>
<g>
</g>
<g>
</g>
<g>
</g>
<g>
</g>
<g>
</g>
<g>
</g>
<g>
</g>
<g>
</g>
</svg>
