<?xml version="1.0" encoding="iso-8859-1"?>
<!-- Generator: Adobe Illustrator 19.0.0, SVG Export Plug-In . SVG Version: 6.00 Build 0)  -->
<svg version="1.1" id="Layer_1" xmlns="http://www.w3.org/2000/svg" xmlns:xlink="http://www.w3.org/1999/xlink" x="0px" y="0px"
	 viewBox="0 0 297.453 297.453" style="enable-background:new 0 0 297.453 297.453;" xml:space="preserve">
<g>
	<g>
		<rect x="16.5" y="196.346" style="fill:#F9BA48;" width="242.857" height="9.524"/>
		<rect x="268.881" y="196.346" style="fill:#F9BA48;" width="9.524" height="9.524"/>
		<path style="fill:#333333;" d="M292.133,177.299l-4.762-38.095h-8.967v-9.524c0-7.876-6.41-14.286-14.286-14.286h-4.762V82.06
			c0-5.252-4.271-9.524-9.524-9.524H225.08c-4.495,0-8.319,3.067-9.295,7.457l-7.867,35.4h-19.99V82.06
			c0-5.252-4.271-9.524-9.524-9.524h-24.752c-4.495,0-8.319,3.067-9.295,7.457l-7.867,35.4H90.976
			c-6.79,0-12.681,4.833-14.005,11.486L74.5,139.202H61.171l-19.048,38.095H0l43.029,109.967c2.157,5.514,7.381,9.081,13.305,9.081
			h241.119V177.299H292.133z M220.848,101.108h19.462v-9.524h-17.348l2.114-9.524h24.757v33.333h-32.157L220.848,101.108z
			 M149.419,101.108h19.462v-9.524h-17.348l2.114-9.524h24.757v33.333h-32.157L149.419,101.108z M86.305,128.745
			c0.443-2.219,2.405-3.829,4.671-3.829h173.143c2.629,0,4.762,2.138,4.762,4.762v9.524H84.214L86.305,128.745z M67.062,148.727
			h211.9l3.571,28.571H52.776L67.062,148.727z M287.928,286.822H56.333c-1.976,0-3.714-1.19-4.433-3.024l-37.948-96.976h273.976
			V286.822z"/>
		<rect x="73.643" y="158.251" style="fill:#333333;" width="19.048" height="9.524"/>
		<rect x="102.214" y="158.251" style="fill:#333333;" width="19.048" height="9.524"/>
		<rect x="130.786" y="158.251" style="fill:#333333;" width="19.048" height="9.524"/>
		<rect x="159.357" y="158.251" style="fill:#333333;" width="19.048" height="9.524"/>
		<rect x="187.928" y="158.251" style="fill:#333333;" width="19.048" height="9.524"/>
		<rect x="216.5" y="158.251" style="fill:#333333;" width="19.048" height="9.524"/>
		<rect x="245.071" y="158.251" style="fill:#333333;" width="19.048" height="9.524"/>
		<path style="fill:#333333;" d="M161.738,58.25h2.381v9.524h9.524V58.25h61.905v9.524h9.524V58.25h47.619v-9.524H161.738
			c-6.567,0-11.905-5.343-11.905-11.905s5.338-11.905,11.905-11.905h11.905v-4.762c0-5.252,4.271-9.524,9.524-9.524H292.69V1.108
			H183.167c-8.857,0-16.329,6.081-18.443,14.286h-2.986c-11.814,0-21.429,9.614-21.429,21.429S149.924,58.25,161.738,58.25z"/>
	</g>
</g>
<g>
</g>
<g>
</g>
<g>
</g>
<g>
</g>
<g>
</g>
<g>
</g>
<g>
</g>
<g>
</g>
<g>
</g>
<g>
</g>
<g>
</g>
<g>
</g>
<g>
</g>
<g>
</g>
<g>
</g>
</svg>
