<?xml version="1.0" encoding="iso-8859-1"?>
<!-- Generator: Adobe Illustrator 19.0.0, SVG Export Plug-In . SVG Version: 6.00 Build 0)  -->
<svg version="1.1" id="Layer_1" xmlns="http://www.w3.org/2000/svg" xmlns:xlink="http://www.w3.org/1999/xlink" x="0px" y="0px"
	 viewBox="0 0 295.238 295.238" style="enable-background:new 0 0 295.238 295.238;" xml:space="preserve">
<g>
	<g>
		<path style="fill:#333333;" d="M288.909,258.371l-47.357-47.362c16.386-22.757,25.114-49.486,25.114-77.676
			C266.667,59.814,206.852,0,133.333,0S0,59.814,0,133.333s59.814,133.333,133.333,133.333c28.186,0,54.919-8.733,77.676-25.114
			l47.362,47.362c4.076,4.076,9.495,6.324,15.267,6.324c11.91,0,21.6-9.686,21.6-21.595
			C295.238,267.876,292.99,262.448,288.909,258.371z M228.162,197.619l3.776-3.776l-6.733-6.733l-3.776,3.776l-10.41-10.414
			l-6.733,6.733l10.41,10.414l-17.076,17.076l-10.41-10.414l-3.048,3.048l-4.114-1.995c-13.248,27.286-32.052,42.052-41.952,48.39
			v-44.2h-9.524v44.324c-11.138-6.962-33.348-24.467-46.562-58.914c7.881-1.486,16.743-2.719,26.662-3.5l-0.748-9.495
			c-10.871,0.857-20.533,2.229-29.086,3.886c-4.171-13.51-6.9-29.338-7.314-47.729h33.238v-9.524H71.524
			c0.414-18.39,3.143-34.229,7.314-47.733c13.619,2.643,30.11,4.51,49.733,4.786v19.138h9.524V85.619
			c19.571-0.271,36.029-2.133,49.629-4.767c3.452,11.167,5.976,23.857,6.986,38.319l9.5-0.667
			c-1.038-14.89-3.605-28.033-7.133-39.662c19.99-4.79,32.571-10.924,38.91-14.657c12.519,18.524,20.129,40.61,21.033,64.386
			h-47.495v9.524h47.429c-0.895,23.895-8.514,46.538-22.229,66.086L228.162,197.619z M9.643,128.571
			c0.905-23.776,8.514-45.862,21.033-64.386c6.329,3.729,18.886,9.852,38.824,14.638C65.21,93,62.41,109.49,62,128.571H9.643z
			 M62.005,138.095c0.41,19.086,3.21,35.581,7.505,49.762c-19.895,4.776-32.476,10.9-38.829,14.624
			c-12.519-18.529-20.133-40.61-21.038-64.386L62.005,138.095L62.005,138.095z M138.095,12.833
			c11.11,6.967,33.267,24.448,46.486,58.867c-12.795,2.414-28.219,4.133-46.486,4.395V12.833z M128.571,76.095
			c-18.295-0.267-33.738-1.986-46.548-4.41c13.219-34.419,35.419-51.914,46.548-58.867V76.095z M230.267,56.443
			c-6,3.376-17.79,8.895-36.257,13.267c-11.248-30.186-29.057-48.61-42.148-58.795C183.49,15.681,211.209,32.471,230.267,56.443z
			 M114.748,10.924C101.629,21.11,83.791,39.51,72.557,69.69C54.147,65.323,42.39,59.819,36.4,56.447
			C55.448,32.486,83.143,15.7,114.748,10.924z M36.395,210.214c6.014-3.381,17.786-8.91,36.152-13.262
			c11.233,30.195,29.076,48.605,42.2,58.79C83.143,250.967,55.438,234.181,36.395,210.214z M151.805,255.724
			c10.052-7.852,22.9-20.61,33.49-39.886l5.59,5.59l-3.776,3.776l6.733,6.733l3.776-3.776l6.562,6.562
			C188.41,245.786,170.643,252.919,151.805,255.724z M273.638,285.714c-3.229,0-6.257-1.257-8.538-3.533l-60.748-60.752
			l17.076-17.076l60.748,60.752c2.281,2.281,3.538,5.314,3.538,8.538C285.714,280.295,280.295,285.714,273.638,285.714z"/>
		<circle style="fill:#F9BA48;" cx="157.143" cy="157.143" r="61.905"/>
		<path style="fill:#333333;" d="M161.905,129v-9.952h-9.524V129c-11.938,2.014-21.362,11.443-23.381,23.381h-9.952v9.524H129
			c2.014,11.938,11.443,21.362,23.381,23.381v9.952h9.524v-9.952c11.938-2.014,21.362-11.443,23.381-23.381h9.952v-9.524h-9.952
			C183.267,140.443,173.843,131.019,161.905,129z M161.905,175.514v-4.086h-9.524v4.086c-6.662-1.733-11.876-6.948-13.61-13.61
			h4.086v-9.524h-4.086c1.733-6.662,6.948-11.876,13.61-13.61v4.086h9.524v-4.086c6.662,1.733,11.876,6.948,13.61,13.61h-4.086
			v9.524h4.086C173.781,168.567,168.567,173.781,161.905,175.514z"/>
		<circle style="fill:#333333;" cx="157.143" cy="157.143" r="4.762"/>
	</g>
</g>
<g>
</g>
<g>
</g>
<g>
</g>
<g>
</g>
<g>
</g>
<g>
</g>
<g>
</g>
<g>
</g>
<g>
</g>
<g>
</g>
<g>
</g>
<g>
</g>
<g>
</g>
<g>
</g>
<g>
</g>
</svg>
