<?xml version="1.0" encoding="iso-8859-1"?>
<!-- Generator: Adobe Illustrator 19.0.0, SVG Export Plug-In . SVG Version: 6.00 Build 0)  -->
<svg version="1.1" id="Layer_1" xmlns="http://www.w3.org/2000/svg" xmlns:xlink="http://www.w3.org/1999/xlink" x="0px" y="0px"
	 viewBox="0 0 295.238 295.238" style="enable-background:new 0 0 295.238 295.238;" xml:space="preserve">
<g>
	<g>
		<path style="fill:#333333;" d="M280.952,0H157.143c-7.876,0-14.286,6.41-14.286,14.286v19.048h9.524V14.286
			c0-2.629,2.133-4.762,4.762-4.762h123.809c2.629,0,4.762,2.133,4.762,4.762v190.476c0,2.629-2.133,4.762-4.762,4.762H176.19v9.524
			h104.762c7.876,0,14.286-6.41,14.286-14.286V14.286C295.238,6.41,288.828,0,280.952,0z"/>
		<path style="fill:#333333;" d="M276.19,19.048h-85.714v66.667h85.714V19.048z M200,42.857h4.762c5.252,0,9.524,4.271,9.524,9.524
			s-4.271,9.524-9.524,9.524H200V42.857z M266.667,76.19H200v-4.762h4.762c10.505,0,19.048-8.543,19.048-19.048
			s-8.543-19.048-19.048-19.048H200V28.57h66.667V76.19z"/>
		<path style="fill:#333333;" d="M242.857,71.429c10.505,0,19.048-8.543,19.048-19.048s-8.543-19.048-19.048-19.048
			s-19.048,8.543-19.048,19.048S232.352,71.429,242.857,71.429z M242.857,42.857c5.252,0,9.524,4.271,9.524,9.524
			s-4.271,9.524-9.524,9.524s-9.524-4.271-9.524-9.524S237.605,42.857,242.857,42.857z"/>
		<rect x="252.381" y="95.238" style="fill:#333333;" width="9.524" height="104.762"/>
		<rect x="228.571" y="95.238" style="fill:#333333;" width="9.524" height="104.762"/>
		<rect x="204.762" y="190.476" style="fill:#333333;" width="9.524" height="9.524"/>
		<rect x="204.762" y="95.238" style="fill:#333333;" width="9.524" height="85.714"/>
		<path style="fill:#F9BA48;" d="M157.143,295.238H0V28.571h157.143c13.129,0,23.81,10.681,23.81,23.81v219.048
			C180.952,284.557,170.271,295.238,157.143,295.238z"/>
		<path style="fill:#333333;" d="M90.476,52.381c-36.762,0-66.667,29.905-66.667,66.667s29.905,66.667,66.667,66.667
			s66.667-29.905,66.667-66.667S127.238,52.381,90.476,52.381z M128.352,114.286c-0.51-9.552-2.405-17.929-5.205-25.071
			c5.238-2.348,8.771-4.929,10.995-6.948c7.429,8.805,12.229,19.876,13.238,32.019C147.38,114.286,128.352,114.286,128.352,114.286z
			 M95.238,66.314c4.348,3.614,9.938,9.271,14.633,17.333c-4.081,0.967-8.919,1.686-14.633,1.948V66.314z M107.11,64.39
			c7.557,2.305,14.433,6.143,20.31,11.138c-1.605,1.39-4.286,3.305-8.357,5.1C115.39,73.933,111.148,68.548,107.11,64.39z
			 M85.714,66.314v19.281C80,85.333,75.162,84.614,71.081,83.648C75.776,75.586,81.367,69.929,85.714,66.314z M61.891,80.624
			c-4.067-1.795-6.752-3.705-8.357-5.1c5.876-4.995,12.757-8.833,20.31-11.138C69.805,68.548,65.562,73.933,61.891,80.624z
			 M85.714,95.105v19.181H62.119c0.505-8.376,2.238-15.671,4.714-21.905C72.033,93.781,78.271,94.795,85.714,95.105z M85.714,123.81
			v19.181c-7.443,0.314-13.681,1.324-18.876,2.724c-2.481-6.229-4.214-13.529-4.714-21.905H85.714z M85.714,152.5v19.281
			c-4.348-3.614-9.938-9.276-14.633-17.333C75.162,153.481,80,152.762,85.714,152.5z M73.843,173.705
			c-7.557-2.305-14.433-6.143-20.31-11.138c1.605-1.39,4.286-3.305,8.357-5.1C65.562,164.162,69.805,169.548,73.843,173.705z
			 M95.238,171.786v-19.281c5.719,0.262,10.552,0.981,14.638,1.948C105.176,162.51,99.586,168.171,95.238,171.786z M119.067,157.467
			c4.081,1.8,6.767,3.714,8.362,5.095c-5.876,5-12.762,8.838-20.319,11.143C111.148,169.548,115.39,164.157,119.067,157.467z
			 M95.238,142.99v-19.18h23.595c-0.505,8.376-2.238,15.671-4.714,21.905C108.919,144.314,102.681,143.3,95.238,142.99z
			 M95.238,114.286V95.105c7.443-0.314,13.681-1.324,18.876-2.724c2.481,6.229,4.214,13.529,4.714,21.905H95.238z M46.81,82.267
			c2.224,2.019,5.757,4.6,10.995,6.948c-2.8,7.143-4.7,15.519-5.205,25.071H33.576C34.586,102.143,39.381,91.071,46.81,82.267z
			 M33.576,123.81h19.029c0.51,9.552,2.405,17.929,5.205,25.071c-5.238,2.348-8.771,4.929-10.995,6.948
			C39.381,147.024,34.586,135.952,33.576,123.81z M134.143,155.829c-2.224-2.019-5.757-4.6-10.995-6.948
			c2.8-7.143,4.7-15.519,5.205-25.071h19.029C146.367,135.952,141.571,147.024,134.143,155.829z"/>
		<rect x="23.81" y="209.524" style="fill:#333333;" width="133.333" height="9.524"/>
		<rect x="147.619" y="233.333" style="fill:#333333;" width="9.524" height="9.524"/>
		<rect x="23.81" y="233.333" style="fill:#333333;" width="114.286" height="9.524"/>
	</g>
</g>
<g>
</g>
<g>
</g>
<g>
</g>
<g>
</g>
<g>
</g>
<g>
</g>
<g>
</g>
<g>
</g>
<g>
</g>
<g>
</g>
<g>
</g>
<g>
</g>
<g>
</g>
<g>
</g>
<g>
</g>
</svg>
