<?xml version="1.0" encoding="iso-8859-1"?>
<!-- Generator: Adobe Illustrator 19.0.0, SVG Export Plug-In . SVG Version: 6.00 Build 0)  -->
<svg version="1.1" id="Layer_1" xmlns="http://www.w3.org/2000/svg" xmlns:xlink="http://www.w3.org/1999/xlink" x="0px" y="0px"
	 viewBox="0 0 295.238 295.238" style="enable-background:new 0 0 295.238 295.238;" xml:space="preserve">
<g>
	<g>
		<path style="fill:#333333;" d="M252.381,19.048H100v-4.762C100,6.41,93.59,0,85.714,0H66.667c-7.876,0-14.286,6.41-14.286,14.286
			v4.762h-9.524c-7.876,0-14.286,6.41-14.286,14.286v161.905c0,7.876,6.41,14.286,14.286,14.286h19.048V200H42.857
			c-2.624,0-4.762-2.138-4.762-4.762v-33.333h219.048v33.333c0,2.624-2.138,4.762-4.762,4.762h-19.048v9.524h19.048
			c7.876,0,14.286-6.41,14.286-14.286V33.333C266.667,25.457,260.257,19.048,252.381,19.048z M61.905,14.286
			c0-2.624,2.138-4.762,4.762-4.762h19.048c2.624,0,4.762,2.138,4.762,4.762v4.762H61.905V14.286z M38.095,152.381V33.333
			c0-2.624,2.138-4.762,4.762-4.762h209.524c2.624,0,4.762,2.138,4.762,4.762v119.048H38.095z"/>
		<rect x="57.143" y="180.952" style="fill:#F9BA48;" width="180.952" height="114.286"/>
		<path style="fill:#333333;" d="M247.619,185.714v-9.524h-200v9.524H76.19v66.667h142.857v-66.667L247.619,185.714L247.619,185.714
			z M85.714,242.857v-20.671l28.538-12.229l40.957,18.2l3.871-8.7l-9.71-4.314l26.548-9.957l33.605,16.805v20.867H85.714V242.857z
			 M209.524,211.343l-33.062-16.529l-39.505,14.814l-22.633-10.062l-28.61,12.262v-26.114h123.809L209.524,211.343L209.524,211.343z
			"/>
		<path style="fill:#333333;" d="M147.619,38.095c-28.881,0-52.381,23.5-52.381,52.381s23.5,52.381,52.381,52.381
			S200,119.357,200,90.476S176.5,38.095,147.619,38.095z M147.619,133.333c-23.629,0-42.857-19.229-42.857-42.857
			s19.229-42.857,42.857-42.857s42.857,19.229,42.857,42.857S171.248,133.333,147.619,133.333z"/>
		<path style="fill:#333333;" d="M209.524,76.19h38.095V38.095h-38.095V76.19z M219.048,47.619h19.048v19.048h-19.048V47.619z"/>
		<rect x="47.619" y="128.571" style="fill:#333333;" width="33.333" height="9.524"/>
		<rect x="90.476" y="128.571" style="fill:#333333;" width="9.524" height="9.524"/>
		<path style="fill:#333333;" d="M147.619,57.143c-18.381,0-33.333,14.952-33.333,33.333s14.952,33.333,33.333,33.333
			s33.333-14.952,33.333-33.333S166,57.143,147.619,57.143z M147.619,114.286c-13.129,0-23.81-10.681-23.81-23.81
			s10.681-23.81,23.81-23.81s23.81,10.681,23.81,23.81S160.748,114.286,147.619,114.286z"/>
	</g>
</g>
<g>
</g>
<g>
</g>
<g>
</g>
<g>
</g>
<g>
</g>
<g>
</g>
<g>
</g>
<g>
</g>
<g>
</g>
<g>
</g>
<g>
</g>
<g>
</g>
<g>
</g>
<g>
</g>
<g>
</g>
</svg>
