<?xml version="1.0" encoding="iso-8859-1"?>
<!-- Generator: Adobe Illustrator 19.0.0, SVG Export Plug-In . SVG Version: 6.00 Build 0)  -->
<svg version="1.1" id="Layer_1" xmlns="http://www.w3.org/2000/svg" xmlns:xlink="http://www.w3.org/1999/xlink" x="0px" y="0px"
	 viewBox="0 0 296.548 296.548" style="enable-background:new 0 0 296.548 296.548;" xml:space="preserve">
<g>
	<g>
		<path style="fill:#F9BA48;" d="M57.146,123.81h-9.524v-9.524c0-7.876,6.41-14.286,14.286-14.286s14.286,6.41,14.286,14.286v9.524
			H66.67H57.146z"/>
		<path style="fill:#F9BA48;" d="M95.242,123.81h-9.524v-9.524c0-7.876,6.41-14.286,14.286-14.286s14.286,6.41,14.286,14.286v9.524
			h-9.524H95.242z"/>
		<path style="fill:#F9BA48;" d="M57.146,157.143h-9.524v-9.524c0-7.876,6.41-14.286,14.286-14.286s14.286,6.41,14.286,14.286v9.524
			H66.67H57.146z"/>
		<path style="fill:#F9BA48;" d="M95.242,157.143h-9.524v-9.524c0-7.876,6.41-14.286,14.286-14.286s14.286,6.41,14.286,14.286v9.524
			h-9.524H95.242z"/>
		<path style="fill:#F9BA48;" d="M133.337,157.143h-9.524v-9.524c0-7.876,6.41-14.286,14.286-14.286
			c7.876,0,14.286,6.41,14.286,14.286v9.524h-9.524H133.337z"/>
		<path style="fill:#F9BA48;" d="M57.146,190.476h-9.524v-9.524c0-7.876,6.41-14.286,14.286-14.286s14.286,6.41,14.286,14.286v9.524
			H66.67H57.146z"/>
		<path style="fill:#F9BA48;" d="M95.242,190.476h-9.524v-9.524c0-7.876,6.41-14.286,14.286-14.286s14.286,6.41,14.286,14.286v9.524
			h-9.524H95.242z"/>
		<path style="fill:#F9BA48;" d="M133.337,190.476h-9.524v-9.524c0-7.876,6.41-14.286,14.286-14.286
			c7.876,0,14.286,6.41,14.286,14.286v9.524h-9.524H133.337z"/>
		<path style="fill:#333333;" d="M219.051,17.729V0H0.003v266.667h123.1l85.152,29.881l10.486-29.881h0.31v-0.89l77.495-220.852
			L219.051,17.729z M284.413,50.752l-3.152,8.99l-62.21-21.828V27.819L284.413,50.752z M209.527,204.762h-200V28.571h143.1
			c2.324,30.333,26.567,54.576,56.9,56.9V204.762z M162.15,28.571h47.376v47.376C184.441,73.676,164.422,53.657,162.15,28.571z
			 M209.527,9.524v4.862v4.662h-200V9.524H209.527z M9.527,257.143v-42.857h200v42.857H95.961H9.527z M202.422,284.405
			l-50.552-17.738h56.776L202.422,284.405z M219.051,48.005l59.052,20.719l-59.052,168.29L219.051,48.005L219.051,48.005z"/>
		<path style="fill:#333333;" d="M125.365,95.238h7.971v-9.524H94.075l-6.805-23.81h7.971V52.38h-76.19v9.524h9.524v23.81h-9.524
			v9.524h9.524v23.81h-9.524v9.524h9.524v23.81h-9.524v9.524h9.524v23.81h-9.524v9.524h180.952v-9.524h-9.524v-23.81h9.524v-9.524
			h-9.524v-23.81h9.524v-9.524H132.17L125.365,95.238z M38.099,61.905h39.262l6.805,23.81H38.099V61.905z M38.099,95.238h77.357
			l6.805,23.81H38.099V95.238z M38.099,128.571h115.452l6.805,23.81H38.099V128.571z M38.099,161.905h115.452l6.805,23.81H38.099
			V161.905z M180.956,185.714h-10.69l-6.805-23.81h17.495V185.714z M180.956,152.381h-10.69l-6.805-23.81h17.495V152.381z"/>
		<circle style="fill:#333333;" cx="52.384" cy="76.19" r="4.762"/>
		<circle style="fill:#333333;" cx="71.432" cy="76.19" r="4.762"/>
		
			<rect x="134.556" y="49.114" transform="matrix(0.9238 -0.3828 0.3828 0.9238 -9.8307 58.3475)" style="fill:#333333;" width="14.285" height="9.524"/>
		
			<rect x="151.587" y="74.605" transform="matrix(0.7071 -0.7071 0.7071 0.7071 -9.6299 135.4851)" style="fill:#333333;" width="14.286" height="9.524"/>
		
			<rect x="177.077" y="91.636" transform="matrix(0.3828 -0.9238 0.9238 0.3828 24.6432 229.6824)" style="fill:#333333;" width="14.285" height="9.524"/>
	</g>
</g>
<g>
</g>
<g>
</g>
<g>
</g>
<g>
</g>
<g>
</g>
<g>
</g>
<g>
</g>
<g>
</g>
<g>
</g>
<g>
</g>
<g>
</g>
<g>
</g>
<g>
</g>
<g>
</g>
<g>
</g>
</svg>
