<?xml version="1.0" encoding="iso-8859-1"?>
<!-- Generator: Adobe Illustrator 19.0.0, SVG Export Plug-In . SVG Version: 6.00 Build 0)  -->
<svg version="1.1" id="Layer_1" xmlns="http://www.w3.org/2000/svg" xmlns:xlink="http://www.w3.org/1999/xlink" x="0px" y="0px"
	 viewBox="0 0 295.239 295.239" style="enable-background:new 0 0 295.239 295.239;" xml:space="preserve">
<g>
	<g>
		<rect x="71.43" y="238.095" style="fill:#F9BA48;" width="152.381" height="38.095"/>
		<path style="fill:#333333;" d="M147.62,0C66.225,0,0.001,66.224,0.001,147.619v71.429v9.524v66.667h295.238v-66.667v-9.524
			v-71.429C295.239,66.224,229.015,0,147.62,0z M285.714,285.714H9.525v-57.143h276.19V285.714z M147.29,52.381h0.657l2,28.014
			l-4.924,3.69L147.29,52.381z M150.758,91.695l0.533,7.486l-5.257-3.943L150.758,91.695z M143.515,105.252l5.69,4.271h-5.995
			L143.515,105.252z M161.906,119.048v9.524h-28.571v-9.524C133.335,119.048,161.906,119.048,161.906,119.048z M159.934,190.476
			h-7.552v-4.762h12.314L159.934,190.476z M142.857,190.476h-7.552l-4.762-4.762h12.314V190.476z M136.277,200h22.686l9.524,19.048
			h-41.733L136.277,200z M118.234,214.79l-5.129-6.838l9.5-1.9L118.234,214.79z M172.633,206.048l9.5,1.9l-5.129,6.838
			L172.633,206.048z M189.271,214.305l2.638,4.743h-6.195L189.271,214.305z M168.391,195.49l6.705-6.705l5.029,9.052L168.391,195.49
			z M165.811,157.143h-9.29l7.433-11.148L165.811,157.143z M157.771,138.095l-10.152,15.224l-10.152-15.224H157.771z
			 M131.29,145.995l7.433,11.148h-9.295L131.29,145.995z M123.811,166.667h47.619v9.524h-47.619V166.667z M120.144,188.781
			l6.705,6.705l-11.733,2.348L120.144,188.781z M105.968,214.305l3.557,4.743h-6.195L105.968,214.305z M202.801,219.048
			l-21.848-39.329v-22.576h-5.49l-4.033-24.205v-23.414h-9.852L159.82,84.9l0.181-0.138l-0.214-0.281l-2.971-41.624h-4.433V14.286
			h-9.524v28.571h-4.433l-4.762,66.667h-9.852v23.414l-4.033,24.205h-5.49v22.576l-21.848,39.329H9.525v-71.429
			C9.525,71.471,71.473,9.524,147.62,9.524s138.095,61.948,138.095,138.095v71.429H202.801z"/>
		<rect x="190.477" y="28.571" style="fill:#333333;" width="9.524" height="9.524"/>
		<rect x="214.286" y="61.905" style="fill:#333333;" width="9.524" height="9.524"/>
		<rect x="185.715" y="57.143" style="fill:#333333;" width="9.524" height="9.524"/>
		<rect x="242.857" y="90.476" style="fill:#333333;" width="9.524" height="9.524"/>
		<rect x="100.001" y="42.857" style="fill:#333333;" width="9.524" height="9.524"/>
		<rect x="52.382" y="61.905" style="fill:#333333;" width="9.524" height="9.524"/>
		<rect x="119.049" y="14.286" style="fill:#333333;" width="9.524" height="9.524"/>
		<rect x="114.287" y="66.667" style="fill:#333333;" width="9.524" height="9.524"/>
		<rect x="85.715" y="95.238" style="fill:#333333;" width="9.524" height="9.524"/>
		<rect x="38.096" y="119.048" style="fill:#333333;" width="9.524" height="9.524"/>
	</g>
</g>
<g>
</g>
<g>
</g>
<g>
</g>
<g>
</g>
<g>
</g>
<g>
</g>
<g>
</g>
<g>
</g>
<g>
</g>
<g>
</g>
<g>
</g>
<g>
</g>
<g>
</g>
<g>
</g>
<g>
</g>
</svg>
