<?xml version="1.0" encoding="iso-8859-1"?>
<!-- Generator: Adobe Illustrator 19.0.0, SVG Export Plug-In . SVG Version: 6.00 Build 0)  -->
<svg version="1.1" id="Layer_1" xmlns="http://www.w3.org/2000/svg" xmlns:xlink="http://www.w3.org/1999/xlink" x="0px" y="0px"
	 viewBox="0 0 295.239 295.239" style="enable-background:new 0 0 295.239 295.239;" xml:space="preserve">
<g>
	<g>
		<g>
			<g>
				<path style="fill:#F9BA48;" d="M66.668,95.238c-15.757,0-28.571-12.814-28.571-28.571s12.814-28.572,28.571-28.572
					S95.239,50.91,95.239,66.667S82.425,95.238,66.668,95.238z"/>
			</g>
		</g>
		<g>
			<g>
				<path style="fill:#F9BA48;" d="M223.81,147.619c-15.757,0-28.571-12.814-28.571-28.571s12.814-28.571,28.571-28.571
					s28.571,12.814,28.571,28.571S239.568,147.619,223.81,147.619z"/>
			</g>
		</g>
		<g>
			<path style="fill:#333333;" d="M0.001,14.286l23.81,224.062v42.605c0,7.876,6.41,14.286,14.286,14.286H95.24
				c7.876,0,14.286-6.41,14.286-14.286v-42.595L133.311,14.79L133.334,0H0.001V14.286z M100.001,266.667H85.715v-4.762
				c0-5.252-4.271-9.524-9.524-9.524H57.144c-5.252,0-9.524,4.271-9.524,9.524v4.762H33.334v-23.81h66.667V266.667z M76.192,266.667
				H57.144v-4.762h19.048V266.667z M95.239,285.714H38.096c-2.624,0-4.762-2.133-4.762-4.762v-4.762H47.62h38.095h14.286v4.762
				C100.001,283.581,97.863,285.714,95.239,285.714z M9.525,9.524h114.286v4.51l-23.329,219.3H32.853L9.525,14.033V9.524z"/>
			<rect x="104.763" y="61.905" style="fill:#333333;" width="9.524" height="9.524"/>
			
				<rect x="92.211" y="31.6" transform="matrix(0.7071 -0.7071 0.7071 0.7071 2.6909 79.2205)" style="fill:#333333;" width="9.524" height="9.524"/>
			<rect x="61.906" y="19.048" style="fill:#333333;" width="9.524" height="9.524"/>
			
				<rect x="31.602" y="31.601" transform="matrix(0.707 -0.7072 0.7072 0.707 -15.062 36.371)" style="fill:#333333;" width="9.524" height="9.524"/>
			<rect x="19.049" y="61.905" style="fill:#333333;" width="9.524" height="9.524"/>
			
				<rect x="31.6" y="92.21" transform="matrix(0.7071 -0.7071 0.7071 0.7071 -57.9192 54.1143)" style="fill:#333333;" width="9.524" height="9.524"/>
			<rect x="61.906" y="104.762" style="fill:#333333;" width="9.524" height="9.524"/>
			
				<rect x="92.21" y="92.215" transform="matrix(0.707 -0.7072 0.7072 0.707 -40.1708 96.9925)" style="fill:#333333;" width="9.524" height="9.524"/>
			<rect x="38.096" y="152.381" style="fill:#333333;" width="57.143" height="9.524"/>
			<rect x="38.096" y="171.429" style="fill:#333333;" width="38.095" height="9.524"/>
			<rect x="85.715" y="171.429" style="fill:#333333;" width="9.524" height="9.524"/>
			<path style="fill:#333333;" d="M257.144,43.138V9.524c0-5.252-4.271-9.524-9.524-9.524h-47.619c-5.252,0-9.524,4.271-9.524,9.524
				v33.614c-21.395,2.376-38.095,20.552-38.095,42.576v161.319c0,3.938,0.486,7.871,1.443,11.7
				c5.376,21.495,24.6,36.505,46.752,36.505h46.471c22.152,0,41.376-15.01,46.752-36.514c0.952-3.819,1.438-7.752,1.438-11.69
				V85.714C295.239,63.69,278.539,45.514,257.144,43.138z M200.001,28.571h47.619v14.286h-47.619V28.571z M247.62,9.524v9.524
				h-47.619V9.524H247.62z M285.715,247.033c0,3.162-0.391,6.314-1.157,9.395c-4.31,17.243-19.738,29.286-37.514,29.286h-46.471
				c-17.771,0-33.2-12.043-37.514-29.305c-0.762-3.062-1.152-6.214-1.152-9.376V85.714c0-18.376,14.952-33.333,33.333-33.333h57.143
				c18.381,0,33.333,14.957,33.333,33.333L285.715,247.033L285.715,247.033z"/>
			<rect x="261.906" y="114.286" style="fill:#333333;" width="9.524" height="9.524"/>
			
				<rect x="249.354" y="83.98" transform="matrix(0.7071 -0.7071 0.7071 0.7071 11.6786 205.6788)" style="fill:#333333;" width="9.524" height="9.524"/>
			<rect x="219.049" y="71.429" style="fill:#333333;" width="9.524" height="9.524"/>
			
				<rect x="188.746" y="83.986" transform="matrix(0.707 -0.7072 0.7072 0.707 -6.0668 162.853)" style="fill:#333333;" width="9.524" height="9.524"/>
			<rect x="176.191" y="114.286" style="fill:#333333;" width="9.524" height="9.524"/>
			
				<rect x="188.742" y="144.591" transform="matrix(0.7071 -0.7071 0.7071 0.7071 -48.9326 180.5729)" style="fill:#333333;" width="9.524" height="9.524"/>
			<rect x="219.049" y="157.143" style="fill:#333333;" width="9.524" height="9.524"/>
			
				<rect x="249.355" y="144.599" transform="matrix(0.707 -0.7072 0.7072 0.707 -31.1749 223.4748)" style="fill:#333333;" width="9.524" height="9.524"/>
			<rect x="180.953" y="204.762" style="fill:#333333;" width="85.714" height="9.524"/>
			<rect x="180.953" y="223.81" style="fill:#333333;" width="66.667" height="9.524"/>
			<rect x="257.144" y="223.81" style="fill:#333333;" width="9.524" height="9.524"/>
		</g>
	</g>
</g>
<g>
</g>
<g>
</g>
<g>
</g>
<g>
</g>
<g>
</g>
<g>
</g>
<g>
</g>
<g>
</g>
<g>
</g>
<g>
</g>
<g>
</g>
<g>
</g>
<g>
</g>
<g>
</g>
<g>
</g>
</svg>
