<?xml version="1.0" encoding="iso-8859-1"?>
<!-- Generator: Adobe Illustrator 19.0.0, SVG Export Plug-In . SVG Version: 6.00 Build 0)  -->
<svg version="1.1" id="Layer_1" xmlns="http://www.w3.org/2000/svg" xmlns:xlink="http://www.w3.org/1999/xlink" x="0px" y="0px"
	 viewBox="0 0 295.239 295.239" style="enable-background:new 0 0 295.239 295.239;" xml:space="preserve">
<g>
	<g>
		<path style="fill:#333333;" d="M180.086,153.211c6.148,11.7,9.576,24.214,10.248,37.267h-38.067
			c-0.471-11.838-2.648-22.667-5.871-32.424c8.843-1.576,16.124-3.41,21.671-5.124l-2.81-9.1
			c-5.605,1.733-13.081,3.595-22.267,5.148c-8.295-19.724-20.39-34.267-29.162-43.052c6.019,0.952,11.981,2.457,17.829,4.648
			l3.338-8.919c-11.371-4.254-23.147-6.416-34.995-6.416c-55.138,0-100,44.857-100,100s44.862,100,100,100s100-44.857,100-100
			c0-16.333-3.867-31.962-11.486-46.457L180.086,153.211z M95.238,110.491v41.814c-10.567-0.171-20.005-0.857-28.267-1.876
			C75.448,131.615,87.486,117.972,95.238,110.491z M95.238,161.829v28.648H57.376c0.51-11.271,2.7-21.595,5.952-30.867
			C72.529,160.825,83.195,161.648,95.238,161.829z M47.733,190.477H9.767c0.781-14.91,5.157-28.852,12.324-41.005
			c5.733,2.348,16.176,5.9,31.505,8.614C50.376,167.833,48.2,178.652,47.733,190.477z M47.733,200.001
			c0.471,11.824,2.643,22.643,5.857,32.39c-15.329,2.719-25.771,6.267-31.505,8.614c-7.166-12.152-11.537-26.094-12.318-41.004
			H47.733z M57.376,200.001h37.862v28.648c-12.052,0.186-22.729,1.005-31.929,2.224C60.067,221.601,57.881,211.282,57.376,200.001z
			 M95.238,238.172v41.838c-7.767-7.467-19.824-21.11-28.305-39.971C75.2,239.025,84.643,238.339,95.238,238.172z M104.762,279.987
			v-41.814c10.567,0.171,20.005,0.857,28.267,1.876C124.552,258.862,112.514,272.505,104.762,279.987z M104.762,228.648v-28.648
			h37.862c-0.51,11.271-2.7,21.595-5.952,30.867C127.471,229.652,116.805,228.829,104.762,228.648z M152.267,200.001h37.967
			c-0.781,14.91-5.157,28.852-12.324,41.005c-5.729-2.348-16.176-5.9-31.505-8.614C149.624,222.644,151.8,211.825,152.267,200.001z
			 M142.624,190.477h-37.862v-28.662c12.076-0.186,22.705-1.033,31.914-2.262C139.929,168.833,142.119,179.176,142.624,190.477z
			 M104.762,152.296v-41.824c7.762,7.467,19.819,21.105,28.3,39.962C124.795,151.443,115.352,152.124,104.762,152.296z
			 M86.157,105.934c-8.767,8.79-20.857,23.329-29.152,43.043c-13.976-2.371-23.762-5.462-29.495-7.648
			C41.391,122.711,62.219,109.634,86.157,105.934z M27.495,249.13c5.714-2.19,15.476-5.286,29.5-7.652
			c8.295,19.729,20.39,34.276,29.162,43.067C62.21,280.839,41.381,267.758,27.495,249.13z M113.843,284.544
			c8.767-8.79,20.857-23.329,29.152-43.043c13.976,2.371,23.762,5.462,29.495,7.648C158.61,267.768,137.781,280.844,113.843,284.544
			z"/>
		<path style="fill:#F9BA48;" d="M266.667,14.287h14.286c7.876,0,14.286,6.41,14.286,14.286v95.238
			c0,7.876-6.41,14.286-14.286,14.286h-76.19l-42.857,38.095v-38.095h-19.048c-7.876,0-14.286-6.41-14.286-14.286V28.572
			c0-7.876,6.41-14.286,14.286-14.286h14.286h109.523V14.287z"/>
		<path style="fill:#333333;" d="M166.667,38.096c7.876,0,14.286-6.41,14.286-14.286v-9.524c-0.001-7.875-6.41-14.285-14.286-14.285
			c-7.876,0-14.286,6.41-14.286,14.286v9.524C152.381,31.687,158.79,38.096,166.667,38.096z M161.905,14.287
			c0-2.624,2.133-4.762,4.762-4.762s4.762,2.138,4.762,4.762v9.524c0,2.624-2.133,4.762-4.762,4.762s-4.762-2.138-4.762-4.762
			V14.287z"/>
		<path style="fill:#333333;" d="M257.143,0.001c-7.876,0-14.286,6.41-14.286,14.286v9.524c0,7.876,6.41,14.286,14.286,14.286
			c7.876,0,14.286-6.41,14.286-14.286v-9.524C271.428,6.411,265.019,0.001,257.143,0.001z M261.905,23.811
			c0,2.624-2.133,4.762-4.762,4.762s-4.762-2.138-4.762-4.762v-9.524c0-2.624,2.133-4.762,4.762-4.762s4.762,2.138,4.762,4.762
			V23.811z"/>
		<rect x="152.381" y="52.382" style="fill:#333333;" width="19.048" height="9.524"/>
		<rect x="185.714" y="52.382" style="fill:#333333;" width="19.048" height="9.524"/>
		<rect x="219.048" y="52.382" style="fill:#333333;" width="19.048" height="9.524"/>
		<rect x="252.381" y="52.382" style="fill:#333333;" width="19.048" height="9.524"/>
		<rect x="152.381" y="76.191" style="fill:#333333;" width="19.048" height="9.524"/>
		<rect x="185.714" y="76.191" style="fill:#333333;" width="19.048" height="9.524"/>
		<rect x="219.048" y="76.191" style="fill:#333333;" width="19.048" height="9.524"/>
		<rect x="252.381" y="76.191" style="fill:#333333;" width="19.048" height="9.524"/>
		<rect x="152.381" y="100.001" style="fill:#333333;" width="19.048" height="9.524"/>
		<rect x="185.714" y="100.001" style="fill:#333333;" width="19.048" height="9.524"/>
		<rect x="219.048" y="100.001" style="fill:#333333;" width="19.048" height="9.524"/>
		<rect x="252.381" y="100.001" style="fill:#333333;" width="19.048" height="9.524"/>
	</g>
</g>
<g>
</g>
<g>
</g>
<g>
</g>
<g>
</g>
<g>
</g>
<g>
</g>
<g>
</g>
<g>
</g>
<g>
</g>
<g>
</g>
<g>
</g>
<g>
</g>
<g>
</g>
<g>
</g>
<g>
</g>
</svg>
