<?xml version="1.0" encoding="utf-8"?>
<!-- Generator: Adobe Illustrator 16.0.0, SVG Export Plug-In . SVG Version: 6.00 Build 0)  -->
<!DOCTYPE svg PUBLIC "-//W3C//DTD SVG 1.1//EN" "http://www.w3.org/Graphics/SVG/1.1/DTD/svg11.dtd">
<svg version="1.1" id="Capa_1" xmlns="http://www.w3.org/2000/svg" xmlns:xlink="http://www.w3.org/1999/xlink" x="0px" y="0px"
	 width="249.45px" height="303.31px" viewBox="0 0 249.45 303.31" enable-background="new 0 0 249.45 303.31" xml:space="preserve">
<g>
	<path fill="#EB6212" d="M215.523,111.501h-64.762c-14.699,0-26.664-11.968-26.664-26.668c0-14.699,11.964-26.668,26.664-26.668
		c1.461,0,2.91,0.122,4.344,0.356c5.309-13.832,18.703-23.211,33.754-23.211c15.211,0,28.891,9.719,34.02,23.895
		c11.316,3.238,19.312,13.671,19.312,25.628C242.191,99.533,230.227,111.501,215.523,111.501L215.523,111.501z M215.523,111.501"/>
	<path fill="#333333" d="M236.789,159.779c-13.32-6.664-28.242-10.184-43.137-10.184h-48.031l-43.176-30.476h-37.07l30.477,30.476
		H64.59l-34.285-30.476H7.758l15.09,33.964l-5.418,0.902v12.805l2.433,1.742c17.547,12.535,38.223,19.156,59.782,19.156h8.589
		l-27.875,27.875l3.895,2.57c1.215,0.805,2.359,1.73,3.402,2.75l1.114,1.09h22.25l48.574-34.285h53.102
		c13.141,0,25.926-2.625,37.996-7.797l5.578-2.391c3.598-1.546,5.922-5.07,5.922-8.98
		C242.191,164.794,240.121,161.447,236.789,159.779L236.789,159.779z M83.766,126.74h16.265l32.379,22.855h-25.785L83.766,126.74z
		 M19.48,126.74h7.93l25.715,22.855h-5.246c-2.719,0-5.461,0.227-8.141,0.676l-9.125,1.519L19.48,126.74z M233.27,170.498
		l-5.578,2.391c-11.125,4.77-22.891,7.184-34.992,7.184h-42.312l6.383-4.508l-4.395-6.223l-63.773,45.016H72.34l39.211-39.211
		l-5.387-5.387l-10.312,10.312H79.645c-19.653,0-38.508-5.945-54.598-17.202v-2.427l15.945-2.66c2.27-0.379,4.59-0.57,6.887-0.57
		h145.773c13.723,0,27.461,3.243,39.727,9.375c0.734,0.371,1.191,1.109,1.191,1.934C234.57,169.38,234.059,170.158,233.27,170.498
		L233.27,170.498z M233.27,170.498"/>
	<path fill="#EB6212" d="M74.57,267.689H28.855C16.25,267.689,6,257.439,6,244.833c0-11.191,8.238-20.671,19.129-22.464
		c5.355-9.563,15.562-15.63,26.586-15.63c14.484,0,26.887,10.242,29.805,24.203c7.238,2.824,12.101,9.773,12.101,17.699
		C93.621,259.146,85.074,267.689,74.57,267.689L74.57,267.689z M74.57,267.689"/>
	<rect x="135.523" y="229.595" fill="#333333" width="76.191" height="7.617"/>
	<rect x="120.285" y="229.595" fill="#333333" width="7.621" height="7.617"/>
	<rect x="40.285" y="61.974" fill="#333333" width="60.953" height="7.621"/>
	<rect x="25.047" y="61.974" fill="#333333" width="7.621" height="7.621"/>
	<rect x="25.047" y="81.025" fill="#333333" width="57.145" height="7.617"/>
	<rect x="9.809" y="81.025" fill="#333333" width="7.621" height="7.617"/>
</g>
</svg>
