<?xml version="1.0" encoding="utf-8"?>
<!-- Generator: Adobe Illustrator 16.0.0, SVG Export Plug-In . SVG Version: 6.00 Build 0)  -->
<!DOCTYPE svg PUBLIC "-//W3C//DTD SVG 1.1//EN" "http://www.w3.org/Graphics/SVG/1.1/DTD/svg11.dtd">
<svg version="1.1" id="Capa_1" xmlns="http://www.w3.org/2000/svg" xmlns:xlink="http://www.w3.org/1999/xlink" x="0px" y="0px"
	 width="249.45px" height="303.31px" viewBox="0 0 249.45 303.31" enable-background="new 0 0 249.45 303.31" xml:space="preserve">
<g>
	<path fill="#333333" d="M188.77,162.79l-5.477-5.477c2.762-2.761,2.762-7.253,0-10.015c-2.676-2.676-7.34-2.676-10.016,0
		l-5.477-5.477l3.871-3.871c2.762-2.762,2.762-7.254,0-10.015c-2.676-2.676-7.336-2.676-10.016,0l-3.871,3.871l-5.477-5.477
		l7.746-7.746c2.762-2.762,2.762-7.254,0-10.016c-2.762-2.761-7.254-2.761-10.016,0l-7.746,7.746l-5.477-5.476l3.871-3.871
		c1.34-1.344,2.074-3.121,2.074-5.012c0-1.887-0.734-3.668-2.074-5.008c-2.762-2.761-7.254-2.761-10.016,0l-3.871,3.875
		l-5.477-5.476l3.871-3.875c5.777-5.778,15.191-5.778,20.969,0c2.273,2.273,3.648,5.105,4.137,8.058
		c5.164-1.73,11.113-0.55,15.227,3.563s5.301,10.058,3.566,15.226c2.949,0.489,5.781,1.864,8.055,4.137
		c4.113,4.113,5.297,10.059,3.562,15.231c2.953,0.488,5.781,1.863,8.055,4.136C194.555,147.603,194.555,157.013,188.77,162.79
		L188.77,162.79z M188.77,162.79"/>
	<path fill="#333333" d="M129.07,207.665l-11.09,11.09l-27.015,11.578l-39.207,35.285l5.183,5.754l13.168-11.851
		c1.571,0.792,3.137,1.613,4.723,2.32L78,254.774c-0.566-0.253-1.129-0.562-1.695-0.832l18.886-16.996l27.207-11.66l12.145-12.147
		L129.07,207.665z M129.07,207.665"/>
	<path fill="#EB6212" d="M103.711,73.243L45,131.954l13.496,13.5l13.27-12.832l0.046-0.047c3.184-3.183,8.368-3.183,11.551,0
		c2.742,2.742,3.172,7.074,1.024,10.301L73,159.95l71.422,71.422l58.711-58.711L103.711,73.243z M138.156,166.403
		c-7.781,7.778-20.398,7.778-28.183,0c-7.782-7.781-7.782-20.402,0-28.187c7.781-7.778,20.398-7.778,28.183,0
		C145.938,145.997,145.938,158.618,138.156,166.403L138.156,166.403z M138.156,166.403"/>
	<path fill="#333333" d="M124.066,176.11c-6.359,0-12.336-2.476-16.832-6.972s-6.972-10.474-6.972-16.828
		c0-6.364,2.476-12.34,6.972-16.832c4.496-4.5,10.469-6.977,16.832-6.977c6.36,0,12.336,2.477,16.829,6.977
		c4.5,4.492,6.977,10.468,6.977,16.832c0,6.358-2.477,12.332-6.977,16.828C136.402,173.638,130.426,176.11,124.066,176.11
		L124.066,176.11z M124.066,136.251c-4.285,0-8.316,1.672-11.355,4.703c-3.035,3.035-4.703,7.067-4.703,11.359
		c0,4.282,1.672,8.312,4.703,11.352c3.035,3.031,7.066,4.703,11.355,4.703c4.286,0,8.317-1.672,11.356-4.703
		c3.035-3.035,4.703-7.065,4.703-11.352c0-4.289-1.672-8.32-4.703-11.359C132.387,137.919,128.352,136.251,124.066,136.251
		L124.066,136.251z M124.066,136.251"/>
	<path fill="#333333" d="M66.621,169.524l6.441,4.293l17.766-26.644c4.192-6.289,3.356-14.735-1.988-20.078
		c-6.207-6.207-16.301-6.207-22.508,0l-23.301,23.301l-7.746,38.729l-12.23,12.238c-0.328-0.679-0.7-1.336-1.016-2.019l-7.031,3.246
		c0.707,1.53,1.504,3.026,2.285,4.534l-12.16,12.156l5.476,5.481l31.817-31.817l7.746-38.729l21.64-21.642
		c3.184-3.183,8.368-3.183,11.551,0c2.742,2.742,3.172,7.074,1.024,10.301L66.621,169.524z M66.621,169.524"/>
	<path fill="#333333" d="M19.82,110.411l-7.183-2.89c-2.024,5.031-3.719,10.246-5.035,15.496l7.507,1.882
		C16.348,119.985,17.93,115.11,19.82,110.411L19.82,110.411z M19.82,110.411"/>
	<path fill="#333333" d="M34.891,84.005l-6.141-4.719c-3.301,4.289-6.336,8.856-9.02,13.567l6.727,3.835
		C28.969,92.29,31.809,88.021,34.891,84.005L34.891,84.005z M34.891,84.005"/>
	<path fill="#333333" d="M5.531,171.509c0.856,5.344,2.09,10.683,3.672,15.87l7.406-2.262c-1.476-4.851-2.632-9.84-3.433-14.832
		L5.531,171.509z M5.531,171.509"/>
	<path fill="#333333" d="M11.746,152.31c0-4.149,0.231-8.329,0.68-12.426l-7.699-0.848C4.242,143.411,4,147.872,4,152.321
		c0.004,1,0.016,1.989,0.039,2.977l7.746-0.184C11.762,154.177,11.75,153.235,11.746,152.31L11.746,152.31z M11.746,152.31"/>
	<path fill="#333333" d="M223.938,85.657c-3.008-4.5-6.355-8.836-9.934-12.886l-5.801,5.128c3.352,3.793,6.48,7.852,9.297,12.063
		L223.938,85.657z M223.938,85.657"/>
	<path fill="#333333" d="M56.473,62.591l-4.668-6.18c-4.313,3.258-8.457,6.848-12.301,10.66l5.453,5.5
		C48.559,68.997,52.434,65.646,56.473,62.591L56.473,62.591z M56.473,62.591"/>
	<path fill="#333333" d="M236.27,147.165l7.738-0.355c-0.242-5.422-0.863-10.868-1.832-16.172l-7.617,1.383
		C235.465,136.993,236.035,142.083,236.27,147.165L236.27,147.165z M236.27,147.165"/>
	<path fill="#333333" d="M238.164,114.853c-1.691-5.145-3.746-10.223-6.117-15.09l-6.965,3.386
		c2.219,4.559,4.145,9.305,5.723,14.114L238.164,114.853z M238.164,114.853"/>
	<path fill="#333333" d="M82.969,47.747l-2.836-7.207c-5.031,1.977-9.977,4.324-14.703,6.973l3.793,6.758
		C73.633,51.79,78.262,49.595,82.969,47.747L82.969,47.747z M82.969,47.747"/>
	<path fill="#333333" d="M127.707,40.048c5.074,0.164,10.172,0.672,15.156,1.515l1.285-7.644
		c-5.324-0.891-10.773-1.438-16.191-1.609L127.707,40.048z M127.707,40.048"/>
	<path fill="#333333" d="M180.945,249.185l3.938,6.671c4.656-2.742,9.176-5.832,13.43-9.188l-4.793-6.077
		C189.535,243.724,185.309,246.614,180.945,249.185L180.945,249.185z M180.945,249.185"/>
	<path fill="#333333" d="M185.172,58.052c4.25,2.758,8.348,5.84,12.188,9.148l5.062-5.871c-4.113-3.535-8.488-6.828-13.027-9.773
		L185.172,58.052z M185.172,58.052"/>
	<path fill="#333333" d="M157.672,45.103c4.84,1.515,9.609,3.378,14.195,5.535l3.301-7.008c-4.898-2.313-10.008-4.297-15.18-5.918
		L157.672,45.103z M157.672,45.103"/>
	<path fill="#333333" d="M222.812,205.864l6.812,3.699c2.586-4.761,4.871-9.746,6.785-14.809l-7.246-2.737
		C227.371,196.754,225.238,201.415,222.812,205.864L222.812,205.864z M222.812,205.864"/>
	<path fill="#333333" d="M233.559,177.431l7.547,1.722c1.211-5.269,2.062-10.679,2.543-16.078l-7.715-0.69
		C235.488,167.438,234.688,172.5,233.559,177.431L233.559,177.431z M233.559,177.431"/>
	<path fill="#333333" d="M204.816,230.372l5.57,5.388c3.762-3.884,7.293-8.067,10.504-12.446l-6.238-4.582
		C211.637,222.825,208.332,226.739,204.816,230.372L204.816,230.372z M204.816,230.372"/>
	<path fill="#333333" d="M152.922,260.884l1.988,7.491c5.234-1.387,10.418-3.151,15.414-5.241l-2.988-7.149
		C162.668,257.938,157.816,259.586,152.922,260.884L152.922,260.884z M152.922,260.884"/>
	<path fill="#333333" d="M90.531,267.622c5.211,1.508,10.563,2.668,15.91,3.465l1.129-7.668c-5.004-0.733-10.011-1.827-14.886-3.237
		L90.531,267.622z M90.531,267.622"/>
	<path fill="#333333" d="M95.652,35.63l1.825,7.523c4.91-1.187,9.957-2.054,15.011-2.574l-0.793-7.707
		C106.289,33.431,100.895,34.356,95.652,35.63L95.652,35.63z M95.652,35.63"/>
	<path fill="#333333" d="M124.062,264.625l-1.316-0.008l-0.07,7.746l1.386,0.008c4.969,0,9.969-0.305,14.864-0.91l-0.953-7.684
		C133.398,264.341,128.719,264.625,124.062,264.625L124.062,264.625z M124.062,264.625"/>
</g>
</svg>
