<?xml version="1.0" encoding="utf-8"?>
<!-- Generator: Adobe Illustrator 16.0.0, SVG Export Plug-In . SVG Version: 6.00 Build 0)  -->
<!DOCTYPE svg PUBLIC "-//W3C//DTD SVG 1.1//EN" "http://www.w3.org/Graphics/SVG/1.1/DTD/svg11.dtd">
<svg version="1.1" id="Layer_1" xmlns="http://www.w3.org/2000/svg" xmlns:xlink="http://www.w3.org/1999/xlink" x="0px" y="0px"
	 width="249.45px" height="303.311px" viewBox="0 0 249.45 303.311" enable-background="new 0 0 249.45 303.311"
	 xml:space="preserve">
<g>
	<g>
		<path fill="#333333" d="M213.24,43.024H84.491v-4.023c0-6.655-5.416-12.071-12.07-12.071H56.328
			c-6.654,0-12.07,5.416-12.07,12.071v4.023H36.21c-6.655,0-12.07,5.415-12.07,12.07v136.795c0,6.655,5.416,12.07,12.07,12.07
			h16.094v-8.047H36.21c-2.217,0-4.023-1.807-4.023-4.024v-28.163h185.076v28.163c0,2.218-1.806,4.024-4.023,4.024h-16.094v8.047
			h16.094c6.655,0,12.07-5.416,12.07-12.071V55.094C225.31,48.439,219.895,43.024,213.24,43.024z M52.304,39.001
			c0-2.218,1.807-4.023,4.023-4.023h16.094c2.217,0,4.023,1.806,4.023,4.023v4.023H52.304V39.001z M32.187,155.678V55.094
			c0-2.217,1.806-4.023,4.023-4.023H213.24c2.218,0,4.023,1.807,4.023,4.023v100.585H32.187z"/>
		<rect x="48.281" y="179.818" fill="#EB6212" width="152.889" height="96.562"/>
		<path fill="#333333" d="M209.216,183.842v-8.047H40.234v8.047h24.14v56.328h120.702v-56.328H209.216L209.216,183.842z
			 M72.421,232.123v-17.465l24.112-10.333l34.605,15.378l3.271-7.352l-8.204-3.645l22.431-8.413l28.393,14.199v17.631
			L72.421,232.123L72.421,232.123z M177.03,205.496l-27.936-13.965l-33.377,12.517l-19.123-8.502l-24.173,10.36v-22.064h104.607
			L177.03,205.496L177.03,205.496z"/>
		<path fill="#333333" d="M124.725,59.117c-24.402,0-44.257,19.855-44.257,44.257c0,24.402,19.855,44.258,44.257,44.258
			c24.402,0,44.258-19.855,44.258-44.258C168.983,78.972,149.127,59.117,124.725,59.117z M124.725,139.585
			c-19.964,0-36.21-16.247-36.21-36.211c0-19.963,16.247-36.21,36.21-36.21c19.963,0,36.211,16.247,36.211,36.21
			C160.936,123.338,144.69,139.585,124.725,139.585z"/>
		<path fill="#333333" d="M177.03,91.303h32.187V59.117H177.03V91.303z M185.077,67.164h16.094v16.094h-16.094V67.164z"/>
		<rect x="40.234" y="135.561" fill="#333333" width="28.164" height="8.047"/>
		<rect x="76.444" y="135.561" fill="#333333" width="8.047" height="8.047"/>
		<path fill="#333333" d="M124.725,75.211c-15.53,0-28.164,12.633-28.164,28.163s12.633,28.164,28.164,28.164
			s28.164-12.634,28.164-28.164S140.255,75.211,124.725,75.211z M124.725,123.492c-11.093,0-20.117-9.024-20.117-20.118
			c0-11.093,9.024-20.117,20.117-20.117s20.117,9.024,20.117,20.117C144.842,114.468,135.818,123.492,124.725,123.492z"/>
	</g>
</g>
</svg>
