<?xml version="1.0" encoding="utf-8"?>
<!-- Generator: Adobe Illustrator 16.0.0, SVG Export Plug-In . SVG Version: 6.00 Build 0)  -->
<!DOCTYPE svg PUBLIC "-//W3C//DTD SVG 1.1//EN" "http://www.w3.org/Graphics/SVG/1.1/DTD/svg11.dtd">
<svg version="1.1" id="Capa_1" xmlns="http://www.w3.org/2000/svg" xmlns:xlink="http://www.w3.org/1999/xlink" x="0px" y="0px"
	 width="792px" height="204px" viewBox="0 79.74 792 204" enable-background="new 0 79.74 792 204" xml:space="preserve">
<polygon fill="#FFFFFF" points="696.169,85.242 576.805,140.321 616.884,153.476 "/>
<polygon fill="#CF6221" points="616.884,153.476 625.388,199.713 696.169,85.241 "/>
<polygon fill="#2D3E79" points="625.388,199.713 634.979,162.74 696.169,85.241 "/>
<polygon fill="#FFFFFF" points="696.169,85.242 670.897,193.576 634.979,162.74 "/>
<g>
	<g>
		<defs>
			<rect id="SVGID_1_" x="0" y="0" width="792" height="382.48"/>
		</defs>
		<clipPath id="SVGID_2_">
			<use xlink:href="#SVGID_1_"  overflow="visible"/>
		</clipPath>
		<path clip-path="url(#SVGID_2_)" fill="#CF6221" d="M481.449,279.204c-24.522,0-51.883-4.604-82.512-13.822
			c-1.586-0.479-2.484-2.152-2.008-3.739c0.479-1.585,2.146-2.479,3.738-2.007c123.917,37.307,167.113-10.438,195.697-42.033
			c6.805-7.519,12.681-14.012,18.618-18.044c1.37-0.928,3.235-0.574,4.167,0.798c0.931,1.371,0.572,3.237-0.798,4.167
			c-5.343,3.626-10.994,9.872-17.538,17.105c-13.834,15.291-32.782,36.231-63.929,48.064
			C520.207,276.031,501.803,279.204,481.449,279.204"/>
	</g>
	<g>
		<defs>
			<rect id="SVGID_3_" x="0" y="0" width="792" height="382.48"/>
		</defs>
		<clipPath id="SVGID_4_">
			<use xlink:href="#SVGID_3_"  overflow="visible"/>
		</clipPath>
		<polygon clip-path="url(#SVGID_4_)" fill="#FFFFFF" points="136.325,203.182 121.178,203.182 121.178,244.865 110.979,244.865 
			110.979,203.182 95.832,203.182 95.832,192.985 136.325,192.985 		"/>
	</g>
	<g>
		<defs>
			<rect id="SVGID_5_" x="0" y="0" width="792" height="382.48"/>
		</defs>
		<clipPath id="SVGID_6_">
			<use xlink:href="#SVGID_5_"  overflow="visible"/>
		</clipPath>
		<path clip-path="url(#SVGID_6_)" fill="#FFFFFF" d="M184.244,244.865h-10.593l-3.961-6.733c-3.168,1.684-6.831,2.575-10.692,2.575
			h-3.466v4.158h-10.197v-51.78h7.427h2.771h3.466c13.168,0,23.86,10.691,23.86,23.76c0,6.04-2.277,11.486-5.841,15.646
			L184.244,244.865z M158.998,231.399c7.921,0,14.455-6.533,14.455-14.556c0-7.92-6.534-14.453-14.455-14.453h-3.466v29.009H158.998
			z"/>
	</g>
	<g>
		<defs>
			<rect id="SVGID_7_" x="0" y="0" width="792" height="382.48"/>
		</defs>
		<clipPath id="SVGID_8_">
			<use xlink:href="#SVGID_7_"  overflow="visible"/>
		</clipPath>
		<path clip-path="url(#SVGID_8_)" fill="#FFFFFF" d="M243.845,244.865h-10.197l-1.685-4.158c-4.059,2.673-8.909,4.158-14.059,4.158
			c-5.148,0-10-1.485-13.959-4.158l-1.684,4.158h-10.197l20.791-51.78h10.198L243.845,244.865z M228.301,231.696l-7.325-18.218
			l-3.07-7.623l-10.296,25.841c2.771,2.276,6.336,3.663,10.296,3.663S225.529,233.972,228.301,231.696"/>
	</g>
	<g>
		<defs>
			<rect id="SVGID_9_" x="0" y="0" width="792" height="382.48"/>
		</defs>
		<clipPath id="SVGID_10_">
			<use xlink:href="#SVGID_9_"  overflow="visible"/>
		</clipPath>
		<polygon clip-path="url(#SVGID_10_)" fill="#FFFFFF" points="279.387,244.865 268.596,244.865 249.784,192.985 260.576,192.985 
			274.041,229.914 287.407,192.985 298.199,192.985 		"/>
	</g>
	<g>
		<defs>
			<rect id="SVGID_11_" x="0" y="0" width="792" height="382.48"/>
		</defs>
		<clipPath id="SVGID_12_">
			<use xlink:href="#SVGID_11_"  overflow="visible"/>
		</clipPath>
		<polygon clip-path="url(#SVGID_12_)" fill="#FFFFFF" points="340.474,234.666 340.474,244.863 314.93,244.863 304.732,244.863 
			304.732,234.666 304.732,229.22 304.732,219.022 304.732,203.282 304.732,193.083 314.93,193.083 338.79,193.083 338.79,203.282 
			314.93,203.282 314.93,219.022 330.078,219.022 330.078,229.22 314.93,229.22 314.93,234.666 		"/>
	</g>
	<g>
		<defs>
			<rect id="SVGID_13_" x="0" y="0" width="792" height="382.48"/>
		</defs>
		<clipPath id="SVGID_14_">
			<use xlink:href="#SVGID_13_"  overflow="visible"/>
		</clipPath>
		<polygon clip-path="url(#SVGID_14_)" fill="#FFFFFF" points="382.552,234.666 382.552,244.863 357.602,244.863 347.405,244.863 
			347.405,234.666 347.405,193.083 357.602,193.083 357.602,234.666 		"/>
	</g>
	<g>
		<defs>
			<rect id="SVGID_15_" x="0" y="0" width="792" height="382.48"/>
		</defs>
		<clipPath id="SVGID_16_">
			<use xlink:href="#SVGID_15_"  overflow="visible"/>
		</clipPath>
		<path clip-path="url(#SVGID_16_)" fill="#CF6221" d="M443.142,218.923c0,14.258-11.584,25.938-25.841,25.938
			c-14.356,0-25.94-11.682-25.94-25.938c0-14.355,11.583-25.938,25.94-25.938C431.558,192.985,443.142,204.568,443.142,218.923
			 M433.836,218.923c0-9.207-7.427-16.533-16.534-16.533c-9.207,0-16.633,7.326-16.633,16.533c0,9.108,7.426,16.534,16.633,16.534
			C426.409,235.458,433.836,228.032,433.836,218.923"/>
	</g>
	<g>
		<defs>
			<rect id="SVGID_17_" x="0" y="0" width="792" height="382.48"/>
		</defs>
		<clipPath id="SVGID_18_">
			<use xlink:href="#SVGID_17_"  overflow="visible"/>
		</clipPath>
		<polygon clip-path="url(#SVGID_18_)" fill="#CF6221" points="493.534,193.083 493.534,241.694 493.534,244.863 483.436,244.863 
			483.338,244.863 483.338,240.706 483.338,240.21 460.862,210.112 460.862,211.3 460.862,244.863 450.664,244.863 450.664,193.083 
			460.862,193.083 483.338,223.181 483.338,222.488 483.338,193.083 		"/>
	</g>
	<g>
		<defs>
			<rect id="SVGID_19_" x="0" y="0" width="792" height="382.48"/>
		</defs>
		<clipPath id="SVGID_20_">
			<use xlink:href="#SVGID_19_"  overflow="visible"/>
		</clipPath>
		<path clip-path="url(#SVGID_20_)" fill="#FFFFFF" d="M556.552,214.865v4.059v0.099v6.338v6.337v0.396
			c-4.455,7.623-12.871,12.87-22.375,12.87c-14.356,0-25.94-11.584-25.94-25.94c0-14.354,11.584-25.938,25.94-25.938
			c6.336,0,12.177,2.276,16.632,6.138l-6.534,7.029c-2.771-2.178-6.336-3.465-10.098-3.465c-9.011,0-16.337,7.227-16.337,16.235
			c0,9.012,7.326,16.238,16.337,16.238c4.851,0,9.306-2.179,12.274-5.544v-5.148h-10.297v-9.702h10.792L556.552,214.865
			L556.552,214.865z"/>
	</g>
	<g>
		<defs>
			<rect id="SVGID_21_" x="0" y="0" width="792" height="382.48"/>
		</defs>
		<clipPath id="SVGID_22_">
			<use xlink:href="#SVGID_21_"  overflow="visible"/>
		</clipPath>
		<path clip-path="url(#SVGID_22_)" fill="#FFFFFF" d="M619.42,218.923c0,14.258-11.584,25.938-25.842,25.938
			c-14.354,0-25.938-11.682-25.938-25.938c0-14.355,11.584-25.938,25.938-25.938C607.836,192.985,619.42,204.568,619.42,218.923
			 M610.112,218.923c0-9.207-7.426-16.533-16.534-16.533c-9.207,0-16.633,7.326-16.633,16.533c0,9.108,7.426,16.534,16.633,16.534
			C602.687,235.458,610.112,228.032,610.112,218.923"/>
	</g>
</g>
</svg>
