<?xml version="1.0" encoding="utf-8"?>
<!-- Generator: Adobe Illustrator 18.1.1, SVG Export Plug-In . SVG Version: 6.00 Build 0)  -->
<svg version="1.1" id="Layer_1" xmlns="http://www.w3.org/2000/svg" xmlns:xlink="http://www.w3.org/1999/xlink" x="0px" y="0px"
	 viewBox="0 0 150 150" enable-background="new 0 0 150 150" xml:space="preserve">
<rect fill="#DA3D26" width="150" height="150"/>
<g>
	<path fill="#FFFFFF" d="M74.7,63.5c-5.4,0-9.8-4.4-9.8-9.8c0-5.4,4.4-9.8,9.8-9.8c5.4,0,9.8,4.4,9.8,9.8
		C84.4,59.1,80,63.5,74.7,63.5z M74.7,46.5c-4,0-7.2,3.2-7.2,7.2c0,4,3.2,7.2,7.2,7.2s7.2-3.2,7.2-7.2
		C81.9,49.7,78.6,46.5,74.7,46.5z"/>
	<path fill="#FFFFFF" d="M91,81.5h-2.6c0-7.1-6.2-13.8-13.8-13.8s-13.8,6.7-13.8,13.8h-2.6c0-8.2,7.4-16.4,16.4-16.4
		S91,73.3,91,81.5z"/>
	<path fill="#FFFFFF" d="M53.5,53.5c-7.2,0-13-5.8-13-13c0-7.2,5.9-13,13-13c7.2,0,13,5.8,13,13C66.6,47.7,60.7,53.5,53.5,53.5z
		 M53.5,30.1c-5.8,0-10.5,4.7-10.5,10.5C43,46.3,47.8,51,53.5,51S64,46.3,64,40.5C64,34.7,59.3,30.1,53.5,30.1z"/>
	<path fill="#FFFFFF" d="M33.9,79.7h-2.6c0-12.7,10-22.2,22.2-22.2c7,0,13.4,3.1,17.6,8.6l-2,1.5c-3.8-4.9-9.4-7.6-15.6-7.6
		C42.7,60,33.9,67.9,33.9,79.7z"/>
	<path fill="#FFFFFF" d="M96.5,53.5c-7.2,0-13-5.8-13-13c0-7.2,5.9-13,13-13c7.2,0,13,5.8,13,13C109.5,47.7,103.7,53.5,96.5,53.5z
		 M96.5,30.1c-5.8,0-10.5,4.7-10.5,10.5C86,46.3,90.7,51,96.5,51c5.8,0,10.5-4.7,10.5-10.5C107,34.7,102.2,30.1,96.5,30.1z"/>
	<path fill="#FFFFFF" d="M118.6,79.7h-2.6c0-11.8-8.8-19.7-19.6-19.7c-6.2,0-11.9,2.8-15.7,7.8l-2-1.6c4.2-5.6,10.7-8.7,17.7-8.7
		C108.7,57.5,118.6,67,118.6,79.7z"/>
</g>
<g>
	<path fill="#FFFFFF" d="M29.9,111.7h7.3v1.6h-5.6v2.7h4.9v1.6h-4.9v4h-1.7V111.7z"/>
	<path fill="#FFFFFF" d="M38.1,119.4L38.1,119.4c0-1.6,1.2-2.4,3.1-2.4c0.8,0,1.4,0.1,2,0.3v-0.2c0-1.1-0.6-1.6-1.8-1.6
		c-0.8,0-1.4,0.2-2.1,0.5l-0.4-1.3c0.8-0.4,1.6-0.6,2.8-0.6c1.1,0,1.9,0.3,2.5,0.8c0.5,0.5,0.8,1.3,0.8,2.3v4.4h-1.7v-0.9
		c-0.5,0.6-1.3,1.1-2.4,1.1C39.3,121.7,38.1,120.9,38.1,119.4z M43.1,118.8v-0.5c-0.4-0.2-1-0.3-1.7-0.3c-1.1,0-1.7,0.5-1.7,1.2v0
		c0,0.7,0.6,1.1,1.4,1.1C42.3,120.4,43.1,119.8,43.1,118.8z"/>
	<path fill="#FFFFFF" d="M46.8,114.1h1.7v1.1c0.5-0.7,1.1-1.3,2.3-1.3c1.1,0,1.8,0.5,2.2,1.3c0.6-0.8,1.4-1.3,2.5-1.3
		c1.6,0,2.6,1,2.6,2.8v4.7h-1.7v-4.2c0-1.2-0.5-1.8-1.5-1.8c-0.9,0-1.6,0.6-1.6,1.8v4.2h-1.7v-4.2c0-1.1-0.6-1.8-1.5-1.8
		s-1.6,0.7-1.6,1.8v4.2h-1.7V114.1z"/>
	<path fill="#FFFFFF" d="M60.1,111.4h1.8v1.6h-1.8V111.4z M60.2,114.1h1.7v7.4h-1.7V114.1z"/>
	<path fill="#FFFFFF" d="M64.2,111.3h1.7v10.2h-1.7V111.3z"/>
	<path fill="#FFFFFF" d="M73.2,114.1H75l-2.9,7.6c-0.6,1.5-1.2,2.1-2.4,2.1c-0.7,0-1.2-0.2-1.8-0.4l0.6-1.3c0.3,0.2,0.6,0.3,1,0.3
		c0.5,0,0.8-0.2,1.1-0.8l-3.1-7.4h1.8l2.1,5.5L73.2,114.1z"/>
	<path fill="#FFFFFF" d="M83.2,113.3h-3.1v-1.6h8v1.6H85v8.2h-1.7V113.3z"/>
	<path fill="#FFFFFF" d="M88.7,114.1h1.7v1.7c0.5-1.1,1.3-1.9,2.6-1.8v1.8h-0.1c-1.5,0-2.5,1-2.5,2.9v2.8h-1.7V114.1z"/>
	<path fill="#FFFFFF" d="M93.6,119.4L93.6,119.4c0-1.6,1.2-2.4,3.1-2.4c0.8,0,1.4,0.1,2,0.3v-0.2c0-1.1-0.6-1.6-1.8-1.6
		c-0.8,0-1.4,0.2-2.1,0.5l-0.4-1.3c0.8-0.4,1.6-0.6,2.8-0.6c1.1,0,1.9,0.3,2.5,0.8c0.5,0.5,0.8,1.3,0.8,2.3v4.4h-1.7v-0.9
		c-0.5,0.6-1.3,1.1-2.4,1.1C94.9,121.7,93.6,120.9,93.6,119.4z M98.7,118.8v-0.5c-0.4-0.2-1-0.3-1.7-0.3c-1.1,0-1.7,0.5-1.7,1.2v0
		c0,0.7,0.6,1.1,1.4,1.1C97.8,120.4,98.7,119.8,98.7,118.8z"/>
	<path fill="#FFFFFF" d="M101.3,114.1h1.8l2,5.4l2-5.4h1.8l-3,7.5h-1.5L101.3,114.1z"/>
	<path fill="#FFFFFF" d="M109.6,117.8L109.6,117.8c0-2.1,1.5-3.9,3.6-3.9c2.4,0,3.5,1.8,3.5,4c0,0.2,0,0.3,0,0.5h-5.4
		c0.2,1.2,1,1.9,2.1,1.9c0.8,0,1.4-0.3,2-0.9l1,0.9c-0.7,0.8-1.7,1.4-3,1.4C111.2,121.7,109.6,120.1,109.6,117.8z M115,117.3
		c-0.1-1.1-0.8-1.9-1.9-1.9c-1,0-1.8,0.8-1.9,1.9H115z"/>
	<path fill="#FFFFFF" d="M118.5,111.3h1.7v10.2h-1.7V111.3z"/>
	<path fill="#FFFFFF" d="M42.7,128.5h1.7v9.8h-1.7V128.5z"/>
	<path fill="#FFFFFF" d="M46.8,130.9h1.7v1.1c0.5-0.7,1.2-1.3,2.3-1.3c1.7,0,2.6,1.1,2.6,2.8v4.7h-1.7v-4.2c0-1.1-0.6-1.8-1.6-1.8
		c-1,0-1.7,0.7-1.7,1.8v4.2h-1.7V130.9z"/>
	<path fill="#FFFFFF" d="M54.9,137.3l0.8-1.1c0.8,0.6,1.7,0.9,2.4,0.9c0.7,0,1.1-0.3,1.1-0.8v0c0-0.6-0.8-0.8-1.7-1
		c-1.1-0.3-2.3-0.8-2.3-2.2v0c0-1.4,1.2-2.3,2.6-2.3c0.9,0,1.9,0.3,2.7,0.8l-0.7,1.2c-0.7-0.4-1.5-0.7-2.1-0.7c-0.7,0-1,0.3-1,0.7v0
		c0,0.5,0.8,0.8,1.7,1.1c1.1,0.3,2.3,0.8,2.3,2.2v0c0,1.6-1.2,2.3-2.7,2.3C57,138.4,55.8,138.1,54.9,137.3z"/>
	<path fill="#FFFFFF" d="M62.4,135.6v-4.7h1.7v4.2c0,1.1,0.6,1.8,1.6,1.8c1,0,1.7-0.7,1.7-1.8v-4.2h1.7v7.4h-1.7v-1.1
		c-0.5,0.7-1.2,1.3-2.3,1.3C63.4,138.5,62.4,137.3,62.4,135.6z"/>
	<path fill="#FFFFFF" d="M71.2,130.9h1.7v1.7c0.5-1.1,1.3-1.9,2.6-1.8v1.8h-0.1c-1.5,0-2.5,1-2.5,2.9v2.8h-1.7V130.9z"/>
	<path fill="#FFFFFF" d="M76.1,136.2L76.1,136.2c0-1.6,1.2-2.4,3.1-2.4c0.8,0,1.4,0.1,2,0.3v-0.2c0-1.1-0.6-1.6-1.8-1.6
		c-0.8,0-1.4,0.2-2.1,0.5l-0.4-1.3c0.8-0.4,1.6-0.6,2.8-0.6c1.1,0,1.9,0.3,2.5,0.8c0.5,0.5,0.8,1.3,0.8,2.3v4.4h-1.7v-0.9
		c-0.5,0.6-1.3,1.1-2.4,1.1C77.4,138.5,76.1,137.7,76.1,136.2z M81.2,135.6v-0.5c-0.4-0.2-1-0.3-1.7-0.3c-1.1,0-1.7,0.5-1.7,1.2v0
		c0,0.7,0.6,1.1,1.4,1.1C80.3,137.2,81.2,136.6,81.2,135.6z"/>
	<path fill="#FFFFFF" d="M84.8,130.9h1.7v1.1c0.5-0.7,1.2-1.3,2.3-1.3c1.7,0,2.6,1.1,2.6,2.8v4.7h-1.7v-4.2c0-1.1-0.6-1.8-1.6-1.8
		c-1,0-1.7,0.7-1.7,1.8v4.2h-1.7V130.9z"/>
	<path fill="#FFFFFF" d="M93.1,134.6L93.1,134.6c0-2.1,1.6-3.9,3.9-3.9c1.4,0,2.3,0.5,3,1.3l-1.1,1.1c-0.5-0.5-1.1-0.9-1.9-0.9
		c-1.2,0-2.1,1.1-2.1,2.4v0c0,1.3,0.9,2.4,2.2,2.4c0.8,0,1.4-0.4,1.9-0.9l1,1c-0.7,0.8-1.6,1.4-3,1.4
		C94.7,138.5,93.1,136.7,93.1,134.6z"/>
	<path fill="#FFFFFF" d="M100.9,134.6L100.9,134.6c0-2.1,1.5-3.9,3.6-3.9c2.4,0,3.5,1.8,3.5,4c0,0.2,0,0.3,0,0.5h-5.4
		c0.2,1.2,1,1.9,2.1,1.9c0.8,0,1.4-0.3,2-0.9l1,0.9c-0.7,0.8-1.7,1.4-3,1.4C102.5,138.5,100.9,136.9,100.9,134.6z M106.4,134.1
		c-0.1-1.1-0.8-1.9-1.9-1.9c-1,0-1.8,0.8-1.9,1.9H106.4z"/>
</g>
</svg>
