<svg xmlns="http://www.w3.org/2000/svg" viewBox="0 0 150 150" enable-background="new 0 0 150 150"><path fill="#DA3D26" d="M0 0h150v150H0z"/><g fill="#fff"><path d="M74.7 63.5c-5.4 0-9.8-4.4-9.8-9.8s4.4-9.8 9.8-9.8 9.8 4.4 9.8 9.8c-.1 5.4-4.5 9.8-9.8 9.8zm0-17c-4 0-7.2 3.2-7.2 7.2s3.2 7.2 7.2 7.2 7.2-3.2 7.2-7.2-3.3-7.2-7.2-7.2zM91 81.5h-2.6c0-7.1-6.2-13.8-13.8-13.8s-13.8 6.7-13.8 13.8h-2.6c0-8.2 7.4-16.4 16.4-16.4S91 73.3 91 81.5zM53.5 53.5c-7.2 0-13-5.8-13-13s5.9-13 13-13c7.2 0 13 5.8 13 13 .1 7.2-5.8 13-13 13zm0-23.4c-5.8 0-10.5 4.7-10.5 10.5C43 46.3 47.8 51 53.5 51S64 46.3 64 40.5s-4.7-10.4-10.5-10.4zM33.9 79.7h-2.6c0-12.7 10-22.2 22.2-22.2 7 0 13.4 3.1 17.6 8.6l-2 1.5c-3.8-4.9-9.4-7.6-15.6-7.6-10.8 0-19.6 7.9-19.6 19.7zM96.5 53.5c-7.2 0-13-5.8-13-13s5.9-13 13-13c7.2 0 13 5.8 13 13s-5.8 13-13 13zm0-23.4c-5.8 0-10.5 4.7-10.5 10.5C86 46.3 90.7 51 96.5 51S107 46.3 107 40.5s-4.8-10.4-10.5-10.4zM118.6 79.7H116c0-11.8-8.8-19.7-19.6-19.7-6.2 0-11.9 2.8-15.7 7.8l-2-1.6c4.2-5.6 10.7-8.7 17.7-8.7 12.3 0 22.2 9.5 22.2 22.2z"/></g><g fill="#fff"><path d="M29.9 111.7h7.3v1.6h-5.6v2.7h4.9v1.6h-4.9v4h-1.7v-9.9zM38.1 119.4c0-1.6 1.2-2.4 3.1-2.4.8 0 1.4.1 2 .3v-.2c0-1.1-.6-1.6-1.8-1.6-.8 0-1.4.2-2.1.5l-.4-1.3c.8-.4 1.6-.6 2.8-.6 1.1 0 1.9.3 2.5.8.5.5.8 1.3.8 2.3v4.4h-1.7v-.9c-.5.6-1.3 1.1-2.4 1.1-1.6-.1-2.8-.9-2.8-2.4zm5-.6v-.5c-.4-.2-1-.3-1.7-.3-1.1 0-1.7.5-1.7 1.2s.6 1.1 1.4 1.1c1.2.1 2-.5 2-1.5zM46.8 114.1h1.7v1.1c.5-.7 1.1-1.3 2.3-1.3 1.1 0 1.8.5 2.2 1.3.6-.8 1.4-1.3 2.5-1.3 1.6 0 2.6 1 2.6 2.8v4.7h-1.7v-4.2c0-1.2-.5-1.8-1.5-1.8-.9 0-1.6.6-1.6 1.8v4.2h-1.7v-4.2c0-1.1-.6-1.8-1.5-1.8s-1.6.7-1.6 1.8v4.2h-1.7v-7.3zM60.1 111.4h1.8v1.6h-1.8v-1.6zm.1 2.7h1.7v7.4h-1.7v-7.4zM64.2 111.3h1.7v10.2h-1.7v-10.2zM73.2 114.1H75l-2.9 7.6c-.6 1.5-1.2 2.1-2.4 2.1-.7 0-1.2-.2-1.8-.4l.6-1.3c.3.2.6.3 1 .3.5 0 .8-.2 1.1-.8l-3.1-7.4h1.8l2.1 5.5 1.8-5.6zM83.2 113.3h-3.1v-1.6h8v1.6H85v8.2h-1.7v-8.2zM88.7 114.1h1.7v1.7c.5-1.1 1.3-1.9 2.6-1.8v1.8h-.1c-1.5 0-2.5 1-2.5 2.9v2.8h-1.7v-7.4zM93.6 119.4c0-1.6 1.2-2.4 3.1-2.4.8 0 1.4.1 2 .3v-.2c0-1.1-.6-1.6-1.8-1.6-.8 0-1.4.2-2.1.5l-.4-1.3c.8-.4 1.6-.6 2.8-.6 1.1 0 1.9.3 2.5.8.5.5.8 1.3.8 2.3v4.4h-1.7v-.9c-.5.6-1.3 1.1-2.4 1.1-1.5-.1-2.8-.9-2.8-2.4zm5.1-.6v-.5c-.4-.2-1-.3-1.7-.3-1.1 0-1.7.5-1.7 1.2s.6 1.1 1.4 1.1c1.1.1 2-.5 2-1.5zM101.3 114.1h1.8l2 5.4 2-5.4h1.8l-3 7.5h-1.5l-3.1-7.5zM109.6 117.8c0-2.1 1.5-3.9 3.6-3.9 2.4 0 3.5 1.8 3.5 4 0 .2 0 .3 0 .5h-5.4c.2 1.2 1 1.9 2.1 1.9.8 0 1.4-.3 2-.9l1 .9c-.7.8-1.7 1.4-3 1.4-2.2 0-3.8-1.6-3.8-3.9zm5.4-.5c-.1-1.1-.8-1.9-1.9-1.9-1 0-1.8.8-1.9 1.9h3.8zM118.5 111.3h1.7v10.2h-1.7v-10.2zM42.7 128.5h1.7v9.8h-1.7v-9.8zM46.8 130.9h1.7v1.1c.5-.7 1.2-1.3 2.3-1.3 1.7 0 2.6 1.1 2.6 2.8v4.7h-1.7V134c0-1.1-.6-1.8-1.6-1.8s-1.7.7-1.7 1.8v4.2h-1.7v-7.3zM54.9 137.3l.8-1.1c.8.6 1.7.9 2.4.9s1.1-.3 1.1-.8c0-.6-.8-.8-1.7-1-1.1-.3-2.3-.8-2.3-2.2 0-1.4 1.2-2.3 2.6-2.3.9 0 1.9.3 2.7.8l-.7 1.2c-.7-.4-1.5-.7-2.1-.7-.7 0-1 .3-1 .7 0 .5.8.8 1.7 1.1 1.1.3 2.3.8 2.3 2.2 0 1.6-1.2 2.3-2.7 2.3-1 0-2.2-.3-3.1-1.1zM62.4 135.6v-4.7h1.7v4.2c0 1.1.6 1.8 1.6 1.8s1.7-.7 1.7-1.8v-4.2h1.7v7.4h-1.7v-1.1c-.5.7-1.2 1.3-2.3 1.3-1.7 0-2.7-1.2-2.7-2.9zM71.2 130.9h1.7v1.7c.5-1.1 1.3-1.9 2.6-1.8v1.8h-.1c-1.5 0-2.5 1-2.5 2.9v2.8h-1.7v-7.4zM76.1 136.2c0-1.6 1.2-2.4 3.1-2.4.8 0 1.4.1 2 .3v-.2c0-1.1-.6-1.6-1.8-1.6-.8 0-1.4.2-2.1.5l-.4-1.3c.8-.4 1.6-.6 2.8-.6 1.1 0 1.9.3 2.5.8.5.5.8 1.3.8 2.3v4.4h-1.7v-.9c-.5.6-1.3 1.1-2.4 1.1-1.5-.1-2.8-.9-2.8-2.4zm5.1-.6v-.5c-.4-.2-1-.3-1.7-.3-1.1 0-1.7.5-1.7 1.2s.6 1.1 1.4 1.1c1.1.1 2-.5 2-1.5zM84.8 130.9h1.7v1.1c.5-.7 1.2-1.3 2.3-1.3 1.7 0 2.6 1.1 2.6 2.8v4.7h-1.7V134c0-1.1-.6-1.8-1.6-1.8s-1.7.7-1.7 1.8v4.2h-1.7v-7.3zM93.1 134.6c0-2.1 1.6-3.9 3.9-3.9 1.4 0 2.3.5 3 1.3l-1.1 1.1c-.5-.5-1.1-.9-1.9-.9-1.2 0-2.1 1.1-2.1 2.4 0 1.3.9 2.4 2.2 2.4.8 0 1.4-.4 1.9-.9l1 1c-.7.8-1.6 1.4-3 1.4-2.3 0-3.9-1.8-3.9-3.9zM100.9 134.6c0-2.1 1.5-3.9 3.6-3.9 2.4 0 3.5 1.8 3.5 4 0 .2 0 .3 0 .5h-5.4c.2 1.2 1 1.9 2.1 1.9.8 0 1.4-.3 2-.9l1 .9c-.7.8-1.7 1.4-3 1.4-2.2 0-3.8-1.6-3.8-3.9zm5.5-.5c-.1-1.1-.8-1.9-1.9-1.9-1 0-1.8.8-1.9 1.9h3.8z"/></g></svg>